<?xml version="1.0" encoding="UTF-8"?>
<svg id="Layer_2" data-name="Layer 2" xmlns="http://www.w3.org/2000/svg" xmlns:xlink="http://www.w3.org/1999/xlink" viewBox="0 0 1306.54 307.7">
  <defs>
    <style>
      .cls-1 {
        fill: url(#linear-gradient-15);
      }

      .cls-2 {
        fill: url(#linear-gradient-13);
      }

      .cls-3 {
        fill: url(#linear-gradient-2);
      }

      .cls-4 {
        fill: url(#linear-gradient-10);
      }

      .cls-5 {
        fill: url(#linear-gradient-12);
      }

      .cls-6 {
        fill: url(#linear-gradient-4);
      }

      .cls-7 {
        fill: #f6f4f1;
      }

      .cls-8 {
        fill: url(#linear-gradient-3);
      }

      .cls-9 {
        fill: url(#linear-gradient-5);
      }

      .cls-10 {
        fill: url(#linear-gradient-8);
      }

      .cls-11 {
        fill: url(#linear-gradient-14);
      }

      .cls-12 {
        fill: url(#linear-gradient-20);
      }

      .cls-13 {
        fill: url(#linear-gradient-17);
      }

      .cls-14 {
        fill: url(#linear-gradient-7);
      }

      .cls-15 {
        fill: url(#linear-gradient-9);
      }

      .cls-16 {
        fill: url(#linear-gradient-11);
      }

      .cls-17 {
        fill: url(#linear-gradient-19);
      }

      .cls-18 {
        fill: url(#linear-gradient-6);
      }

      .cls-19 {
        fill: url(#linear-gradient-21);
      }

      .cls-20 {
        fill: #e6b65c;
      }

      .cls-21 {
        fill: url(#linear-gradient-16);
      }

      .cls-22 {
        fill: url(#linear-gradient);
      }

      .cls-23 {
        fill: url(#linear-gradient-18);
      }
    </style>
    <linearGradient id="linear-gradient" x1="162.12" y1="886.34" x2="433.92" y2="886.34" gradientTransform="translate(272.65 -807.79) rotate(23.99)" gradientUnits="userSpaceOnUse">
      <stop offset="0" stop-color="#783e8d"/>
      <stop offset="1" stop-color="#774fd4"/>
    </linearGradient>
    <linearGradient id="linear-gradient-2" x1="163.12" y1="887.26" x2="430" y2="887.26" xlink:href="#linear-gradient"/>
    <linearGradient id="linear-gradient-3" x1="164.04" y1="888.13" x2="426.01" y2="888.13" xlink:href="#linear-gradient"/>
    <linearGradient id="linear-gradient-4" x1="165.09" y1="888.64" x2="421.28" y2="888.64" xlink:href="#linear-gradient"/>
    <linearGradient id="linear-gradient-5" x1="164.8" y1="888.5" x2="416.12" y2="888.5" xlink:href="#linear-gradient"/>
    <linearGradient id="linear-gradient-6" x1="164.5" y1="886.29" x2="411.79" y2="886.29" xlink:href="#linear-gradient"/>
    <linearGradient id="linear-gradient-7" x1="163.99" y1="883.74" x2="407.76" y2="883.74" xlink:href="#linear-gradient"/>
    <linearGradient id="linear-gradient-8" x1="166.22" y1="966.59" x2="402.27" y2="966.59" gradientTransform="translate(272.65 -807.79) rotate(23.99)" gradientUnits="userSpaceOnUse">
      <stop offset="0" stop-color="#fb896d"/>
      <stop offset="1" stop-color="#f26188"/>
    </linearGradient>
    <linearGradient id="linear-gradient-9" x1="173.36" y1="969.88" x2="391.34" y2="969.88" xlink:href="#linear-gradient-8"/>
    <linearGradient id="linear-gradient-10" x1="180" y1="972.62" x2="379.2" y2="972.62" xlink:href="#linear-gradient-8"/>
    <linearGradient id="linear-gradient-11" x1="187.24" y1="975.26" x2="372.52" y2="975.26" xlink:href="#linear-gradient-8"/>
    <linearGradient id="linear-gradient-12" x1="193.78" y1="977.52" x2="380.35" y2="977.52" xlink:href="#linear-gradient-8"/>
    <linearGradient id="linear-gradient-13" x1="200.18" y1="980.32" x2="389" y2="980.32" xlink:href="#linear-gradient-8"/>
    <linearGradient id="linear-gradient-14" x1="206.52" y1="983.07" x2="395.94" y2="983.07" xlink:href="#linear-gradient-8"/>
    <linearGradient id="linear-gradient-15" x1="139.8" y1="917.88" x2="312.18" y2="917.88" gradientTransform="translate(272.65 -807.79) rotate(23.99)" gradientUnits="userSpaceOnUse">
      <stop offset="0" stop-color="#bd4071"/>
      <stop offset="1" stop-color="#954a8f"/>
    </linearGradient>
    <linearGradient id="linear-gradient-16" x1="143.97" y1="922.52" x2="302.42" y2="922.52" xlink:href="#linear-gradient-15"/>
    <linearGradient id="linear-gradient-17" x1="144.06" y1="927.2" x2="294.29" y2="927.2" xlink:href="#linear-gradient-15"/>
    <linearGradient id="linear-gradient-18" x1="141.35" y1="932.01" x2="285.85" y2="932.01" xlink:href="#linear-gradient-15"/>
    <linearGradient id="linear-gradient-19" x1="137.01" y1="937.31" x2="278.08" y2="937.31" xlink:href="#linear-gradient-15"/>
    <linearGradient id="linear-gradient-20" x1="132.53" y1="942.74" x2="269.72" y2="942.74" xlink:href="#linear-gradient-15"/>
    <linearGradient id="linear-gradient-21" x1="128.49" y1="947.87" x2="263.29" y2="947.87" xlink:href="#linear-gradient-15"/>
  </defs>
  <g id="Layer_1-2" data-name="Layer 1">
    <g>
      <g>
        <path class="cls-7" d="M375.13,156.12c0-39.78,31.29-73.35,77.91-73.35,12.85,0,34.19,2.9,44.96,10.15l.83,27.35-2.49.62c-8.5-21.34-30.25-34.19-50.97-34.19-27.15,0-48.07,18.23-48.49,55.74-.41,39.16,23.41,83.92,63.2,83.92,13.05,0,24.87-5.39,30.05-15.75v-18.86c0-16.16-1.86-21.96-10.77-24.45v-2.9h32.12v38.13c-15.54,20.31-41.03,28.8-58.23,28.8-47.66,0-78.12-29.84-78.12-75.22Z"/>
        <path class="cls-7" d="M526.4,226.37c6.84-2.28,8.29-8.49,8.29-23.41v-109.82c0-12.23-3.11-14.3-8.29-16.58v-2.9l27.35-12.02,2.07,1.66v139.66c0,14.92,1.45,21.14,8.29,23.41v2.9h-37.71v-2.9Z"/>
        <path class="cls-7" d="M577.58,180.16c0-33.57,26.94-55.95,55.32-55.95,25.69,0,55.12,15.13,55.12,51.59s-30.67,55.53-55.12,55.53c-26.94,0-55.32-15.95-55.32-51.18ZM667.09,191.56c0-26.32-18.03-65.89-44.76-63.2-18.03,1.87-24.04,18.44-24.04,36.26,0,24.45,14.51,62.16,41.86,62.16,20.31,0,26.94-17.61,26.94-35.23Z"/>
        <path class="cls-7" d="M688.85,128.57v-2.9h35.43v2.9c-6.84,2.28-5.18,8.08-1.24,22.38l15.75,55.53,27.77-80.81h12.64l27.35,79.98,16.37-54.7c4.14-14.3,1.87-20.72-5.18-22.38v-2.9h22.17v2.9c-6.01,2.07-9.32,8.08-13.47,22.38l-23.62,78.33h-10.57l-28.8-84.75-29.42,84.75h-10.57l-22.79-78.33c-4.14-14.3-7.25-20.31-11.81-22.38Z"/>
        <path class="cls-7" d="M846.12,216.63l-.83-31.08,2.69-.41c8.7,23.62,27.14,41.86,54.7,41.86,14.3,0,27.56-9.12,27.56-26.11,0-20.31-26.73-29.84-43.31-36.47-21.34-8.91-39.16-15.95-39.16-39.99,0-25.69,20.72-41.65,53.25-41.65,15.33,0,29.01,3.31,39.78,8.7l.83,26.94-2.28.83c-8.5-21.34-26.11-32.95-46.21-32.95-16.58,0-29.63,9.74-29.63,26.11,0,18.44,20.93,25.9,37.51,32.53,21.13,8.08,46.21,17.41,46.21,42.27,0,28.39-26.11,44.13-49.94,44.13-21.34,0-40.61-6.84-51.18-14.71Z"/>
        <path class="cls-7" d="M970.04,200.05v-71.07h-13.26v-3.31l31.08-27.35h3.32v27.35h32.12l-.83,3.31h-31.29v71.28c0,12.85,4.77,18.44,13.88,18.44,4.56,0,11.6-1.86,18.44-10.36l2.07,2.07c-10.98,12.64-21.55,20.93-33.98,20.93-14.09,0-21.55-8.91-21.55-31.29Z"/>
        <path class="cls-7" d="M1032.2,226.37c6.84-2.28,8.29-8.49,8.29-23.41v-47.66c0-12.23-3.11-14.3-8.29-16.58v-2.9l27.35-12.02,2.07,1.66v25.07c3.11-7.25,8.5-13.68,15.13-18.23,7.67-5.39,15.54-8.08,25.49-8.08,7.04,0,13.26,1.87,13.26,6.22s-4.56,13.47-14.09,13.47c-5.8,0-13.68-2.07-26.94-6.22-5.18,4.35-12.23,13.68-12.85,24.04v41.23c0,14.92,1.45,21.14,8.29,23.41v2.9h-37.71v-2.9Z"/>
        <path class="cls-7" d="M1125.65,226.37c6.84-2.28,8.29-8.49,8.29-23.41v-47.66c0-12.23-3.11-14.3-8.29-16.58v-2.9l27.35-12.02,2.07,1.66v17.41c11.4-9.33,26.32-18.65,42.48-18.65,14.51,0,24.04,5.59,27.97,18.86,11.4-9.32,26.52-18.86,42.89-18.86,19.06,0,29.84,9.95,29.84,34.19v44.55c0,14.92,1.45,21.14,8.29,23.41v2.9h-37.71v-2.9c6.84-2.28,8.29-8.49,8.29-23.41v-40.82c0-18.65-6.01-29.63-21.34-29.63-9.74,0-18.65,4.77-29.63,13.47.83,3.73,1.24,7.87,1.24,12.43v44.55c0,14.92,1.45,21.14,8.29,23.41v2.9h-37.71v-2.9c6.84-2.28,8.29-8.49,8.29-23.41v-40.82c0-18.65-6.01-29.63-21.34-29.63-9.74,0-18.65,4.77-29.84,13.88v56.57c0,14.92,1.45,21.14,8.29,23.41v2.9h-37.71v-2.9Z"/>
      </g>
      <g>
        <g id="_Radial_Repeat_" data-name="&amp;lt;Radial Repeat&amp;gt;">
          <g>
            <path class="cls-22" d="M251.48,255.34c-.12-.05-.22-.14-.3-.25-.23-.33-.15-.78.18-1.01l1.95-1.36c15.97-11.16,32.48-22.69,38.83-41.02,6.67-19.19-1.26-43.89-11.45-58.73-2.81-4.1-5.93-8.11-8.95-11.99-5.77-7.41-11.73-15.08-15.89-23.81-4.25-8.63-7.24-18.18-10.14-27.4-2.97-9.46-6.03-19.24-10.46-28.07-11.13-24.96-37.96-39.34-62.42-33.48-19.39,5.37-30.61,15.17-42.49,25.55-16.56,14.46-35.33,30.85-80.46,40.65-.39.08-.78-.17-.86-.55-.08-.39.16-.78.55-.86,44.77-9.71,63.39-25.97,79.82-40.32,12.01-10.49,23.35-20.4,43.08-25.86,25.15-6.03,52.69,8.7,64.09,34.26,4.47,8.91,7.55,18.75,10.53,28.26,2.88,9.18,5.85,18.66,10.06,27.21,4.1,8.6,10.02,16.2,15.73,23.55,3.03,3.89,6.16,7.92,9,12.06,10.39,15.13,18.46,40.37,11.62,60.03-6.51,18.77-23.21,30.44-39.37,41.73l-1.94,1.36c-.22.15-.49.17-.71.07Z"/>
            <path class="cls-3" d="M252.87,248.02c-.13-.06-.25-.16-.33-.3-.2-.34-.09-.79.26-.99,9.1-5.35,38.98-25.19,41.12-55.84.88-12.62-3.09-23.75-5.23-29.73-3.43-9.61-7-14.46-11.95-21.17-3.94-5.34-8.83-11.99-15.06-23.14-3.83-6.87-5.36-10.39-6.97-14.11-1.73-4-3.52-8.13-8.39-16.86-10.34-18.56-15.29-27.07-24.12-34.17-4.03-3.24-16.31-13.11-34.37-13.91-13.26-.58-23.93,4.17-29.06,6.45-11.39,5.06-18.83,11.7-22.82,15.27-.75.67-1.36,1.22-1.85,1.61-19.51,15.98-43.13,19.12-68.14,22.44-3.62.48-7.26.97-10.9,1.49-.4.06-.76-.22-.82-.61-.06-.4.22-.76.61-.82,3.65-.53,7.29-1.01,10.92-1.49,24.79-3.29,48.21-6.41,67.41-22.12.47-.38,1.07-.92,1.8-1.57,4.06-3.62,11.61-10.35,23.2-15.51,5.23-2.33,16.11-7.17,29.72-6.57,18.53.81,31.08,10.91,35.21,14.23,9.42,7.58,14.77,17.17,24.47,34.59,4.9,8.8,6.71,12.96,8.45,16.99,1.6,3.69,3.11,7.18,6.91,13.98,6.18,11.06,11.04,17.67,14.96,22.98,5.02,6.81,8.64,11.73,12.15,21.55,2.17,6.08,6.21,17.39,5.31,30.31-2.19,31.36-32.57,51.55-41.83,56.99-.21.12-.46.13-.66.04Z"/>
            <path class="cls-8" d="M253.19,241.31c-.11-.05-.21-.12-.28-.22-.24-.32-.18-.77.14-1.01,21.81-16.51,45.99-39.67,39.21-72.51-2.88-18.65-11.48-31.46-20.58-45.01-2.15-3.21-4.38-6.52-6.58-9.98-2.58-4.06-5.11-8.34-7.54-12.48-5.75-9.77-11.7-19.87-19.18-28.33-14.77-17.34-37.46-25.22-60.71-21.07-11.33,1.93-22.15,6.4-32.61,10.73-9.09,3.76-18.5,7.65-28.25,9.88-9.62,2.37-20.61,2.97-31.24,3.55-8.79.48-17.88.97-26.01,2.48-.39.08-.77-.19-.84-.58s.19-.77.58-.84c8.22-1.52,17.36-2.02,26.2-2.5,10.56-.57,21.49-1.17,30.98-3.51,9.65-2.21,19-6.08,28.04-9.81,10.53-4.35,21.43-8.86,32.91-10.81,23.75-4.24,46.95,3.81,62.05,21.55,7.57,8.56,13.55,18.72,19.34,28.55,2.43,4.13,4.94,8.4,7.52,12.44,2.19,3.44,4.41,6.75,6.56,9.95,9.2,13.69,17.88,26.63,20.81,45.57,6.93,33.59-17.61,57.15-39.76,73.92-.22.17-.5.19-.73.08Z"/>
            <path class="cls-6" d="M253,234.04c-.12-.05-.22-.13-.3-.24-.23-.33-.16-.78.17-1.01,11.29-8,26.35-21.42,33.98-39.96.92-2.23,3.07-7.46,4.26-14.61,2.32-13.95-.59-24.83-1.99-30.06-2.78-10.4-6.73-16.97-14.6-30.04-5.77-9.58-10.33-17.15-18.16-25.96-6.8-7.64-16.12-18.16-31.3-24.76-8.25-3.62-17.31-5.74-26.92-6.31-13.73-1.09-27.53.93-40.87,2.89-6.09.89-12.4,1.82-18.58,2.43-10.04.88-20.9.85-31.4.82-14.5-.05-29.49-.09-43.08,2.2-.39.06-.77-.2-.83-.59-.07-.39.2-.77.59-.83,13.71-2.32,28.76-2.27,43.32-2.22,10.47.03,21.3.07,31.26-.81,6.14-.6,12.43-1.53,18.51-2.42,13.42-1.97,27.3-4,41.18-2.9,9.77.58,18.99,2.75,27.4,6.43.12.05.25.11.37.16,15.27,6.79,24.6,17.28,31.43,24.96,7.93,8.91,12.51,16.53,18.32,26.17,7.94,13.19,11.93,19.81,14.76,30.41,1.42,5.33,4.39,16.42,2.02,30.68-1.22,7.31-3.41,12.65-4.35,14.93-7.76,18.86-23.03,32.48-34.48,40.59-.22.15-.49.17-.71.07Z"/>
            <path class="cls-9" d="M252.08,227.56c-.12-.05-.22-.14-.3-.25-.23-.33-.15-.78.18-1.01,9.25-6.44,22.04-17.92,30.42-36.11,3.06-6.63,11.17-24.26,7.51-46.66-2.92-17.87-11.92-30.1-17.3-37.4-5.97-8.11-11.68-13.3-15.42-16.22-1.81-1.41-8.44-6.33-17.23-10.13-14.68-6.33-30.42-7.41-50.34-8.77-6.73-.46-13.69-.93-21.22-1.66-7.71-.74-15.6-1.97-23.22-3.16-9.86-1.54-20.05-3.13-30.3-3.75-2.93-.2-5.99-.45-9.13-.71-12.46-1.02-26.57-2.17-38.1-.79-.39.05-.76-.24-.8-.63-.05-.4.24-.76.63-.8,11.67-1.39,25.87-.24,38.39.79,3.13.26,6.19.5,9.11.71,10.31.63,20.54,2.22,30.43,3.77,7.61,1.19,15.47,2.41,23.14,3.15,7.51.72,14.46,1.2,21.18,1.65,20.06,1.37,35.91,2.45,50.82,8.88,9.04,3.92,15.7,8.88,17.54,10.32,3.81,2.98,9.62,8.26,15.69,16.5,5.46,7.41,14.59,19.81,17.56,38.03,3.73,22.84-4.52,40.76-7.63,47.5-8.51,18.48-21.51,30.16-30.91,36.7-.22.15-.48.17-.71.07Z"/>
            <path class="cls-18" d="M251.15,221.23c-.11-.05-.21-.12-.28-.23-.24-.32-.18-.77.14-1.01,24.89-18.67,46.38-58.85,37.7-91.2-5.57-23.4-24.17-41.45-46.31-44.93-8.5-1.49-17.31-1.7-25.84-1.9-10.6-.25-21.57-.51-32.07-3.21-10.49-2.33-20.59-6.64-30.36-10.81-7.44-3.17-15.13-6.46-22.84-8.78-20-6.46-40.73-8.99-59.97-7.31-.4.03-.75-.26-.78-.66-.03-.4.26-.75.66-.78,19.43-1.69,40.36.86,60.53,7.38,7.77,2.34,15.5,5.64,22.97,8.83,9.71,4.14,19.75,8.43,30.13,10.73,10.36,2.67,21.24,2.92,31.76,3.17,8.58.2,17.45.41,26.04,1.92,22.69,3.57,41.77,22.05,47.47,46,8.83,32.92-12.97,73.76-38.24,92.71-.22.16-.5.19-.73.08Z"/>
            <path class="cls-14" d="M249.58,215.02c-.09-.04-.17-.1-.24-.17-.27-.29-.25-.75.04-1.02,20.15-18.59,32.92-38.52,39.05-60.93,4.37-15.84,4.21-28.08-.5-38.51-8.6-19.23-28.51-29.01-51.97-25.52l-1.79.23c-16.65,2.12-33.85,4.32-48.92-4.39-7.29-3.8-13.83-9.16-20.16-14.34-3.87-3.17-7.88-6.45-11.93-9.25-23.71-17.28-53.33-18.05-79.18-16.52-.39.02-.74-.28-.77-.68-.02-.4.28-.74.68-.77,26.11-1.54,56.04-.75,80.11,16.78,4.08,2.82,8.11,6.12,12.01,9.31,6.27,5.13,12.75,10.44,19.94,14.19,14.67,8.48,31.63,6.31,48.04,4.22l1.78-.23c24.11-3.58,44.61,6.52,53.49,26.36,4.86,10.76,5.04,23.31.57,39.49-6.2,22.68-19.1,42.83-39.46,61.61-.22.2-.53.24-.79.13Z"/>
          </g>
        </g>
        <g id="_Radial_Repeat_-2" data-name="&amp;lt;Radial Repeat&amp;gt;">
          <g>
            <path class="cls-10" d="M39.4,275.17c-7.17-3.19-13.68-7.56-18.58-13.24-13-15.02-14.76-35.32-16.46-54.96l-.21-2.37c-.03-.4.26-.75.66-.78.4-.03.75.26.78.66l.21,2.37c1.68,19.4,3.41,39.47,16.11,54.14,13.28,15.37,38.64,20.86,56.59,19.45,4.96-.39,9.99-1.08,14.86-1.75,9.3-1.29,18.92-2.62,28.56-1.86,9.6.64,19.36,2.82,28.8,4.93,9.68,2.16,19.68,4.4,29.54,4.98,27.18,2.84,53.05-13.21,60.2-37.32,5.04-19.48,2.17-34.1-.88-49.57-4.25-21.57-9.06-46.02,5.03-90,.12-.38.53-.59.91-.47.38.12.59.53.47.91-13.97,43.63-9.2,67.88-4.99,89.28,3.08,15.65,5.99,30.42.85,50.24-7.35,24.8-33.88,41.28-61.72,38.38-9.94-.58-20.01-2.83-29.74-5.01-9.39-2.1-19.09-4.26-28.59-4.89-9.5-.75-19.04.57-28.26,1.85-4.89.68-9.94,1.37-14.95,1.76-11.7.92-26.5-1.05-39.21-6.71Z"/>
            <path class="cls-15" d="M46.91,278.91c-2.89-1.28-5.82-2.85-8.67-4.78-26.07-17.58-28.36-53.98-28.44-64.72,0-.4.32-.73.72-.73.4,0,.73.32.73.72.08,10.56,2.32,46.34,27.8,63.53,10.5,7.08,22.12,9.2,28.36,10.34,10.04,1.84,16.03,1.17,24.31.24,6.59-.74,14.8-1.65,27.56-1.47,7.87.11,11.68.55,15.71,1.02,4.33.5,8.8,1.02,18.79,1.17,21.24.32,31.08.29,41.65-3.8,4.83-1.87,19.51-7.57,29.23-22.81,7.13-11.19,8.36-22.81,8.95-28.39,1.31-12.4-.72-22.16-1.81-27.41-.2-.98-.37-1.79-.47-2.4-4.08-24.89,5.01-46.91,14.64-70.23,1.39-3.38,2.8-6.77,4.16-10.19.15-.37.57-.55.94-.4.44.18.55.57.4.94-1.37,3.42-2.77,6.82-4.17,10.2-9.54,23.12-18.56,44.96-14.55,69.44.1.6.26,1.38.46,2.34,1.11,5.32,3.16,15.23,1.83,27.85-.6,5.69-1.85,17.54-9.17,29.02-9.97,15.64-24.99,21.46-29.93,23.38-11.28,4.37-22.26,4.21-42.19,3.9-10.06-.15-14.58-.67-18.94-1.18-4-.46-7.77-.9-15.57-1.01-12.67-.18-20.83.73-27.38,1.46-8.41.94-14.48,1.62-24.73-.25-4.66-.85-12.27-2.24-20.23-5.78Z"/>
            <path class="cls-4" d="M54.19,282.45c-28.09-12.5-35.5-43.33-38.74-69.31-.05-.4.23-.76.63-.81.39-.05.76.23.81.63,3.39,27.15,11.34,59.68,43.19,70.21,17.6,6.83,32.98,5.79,49.27,4.68,3.85-.26,7.84-.53,11.93-.71,4.81-.21,9.77-.25,14.58-.29,11.34-.1,23.06-.2,34.13-2.45,22.4-4.12,40.57-19.83,48.6-42.04,4-10.78,5.53-22.38,7.02-33.6,1.29-9.76,2.62-19.85,5.57-29.41,2.75-9.52,7.73-19.33,12.55-28.82,3.98-7.85,8.1-15.97,10.86-23.77.13-.38.55-.57.92-.44.38.11.57.55.44.92-2.79,7.89-6.93,16.05-10.93,23.94-4.78,9.43-9.73,19.19-12.45,28.58-2.91,9.46-4.24,19.49-5.52,29.19-1.49,11.3-3.04,22.98-7.09,33.91-8.21,22.69-26.78,38.76-49.69,42.96-11.19,2.28-22.99,2.38-34.39,2.48-4.79.04-9.74.08-14.53.29-4.08.18-8.05.45-11.9.71-16.46,1.12-32,2.17-49.86-4.76-1.88-.62-3.68-1.32-5.39-2.08Z"/>
            <path class="cls-16" d="M65.61,287.29c-4.63-2.06-9.86-5-15.11-9.32-5.74-4.72-9.25-9.28-10.75-11.23-12.45-16.15-16.61-36.19-17.92-50.16-.04-.4.26-.75.65-.79.4-.04.75.26.79.65,1.28,13.78,5.38,33.54,17.62,49.41,1.47,1.91,4.92,6.38,10.53,10.99,10.92,8.98,21.8,11.9,27.03,13.31,10.4,2.79,18.06,2.65,33.31,2.38,11.18-.2,20.01-.36,31.57-2.75,10.01-2.07,23.73-4.9,37.09-14.73,7.26-5.34,13.63-12.12,18.93-20.15,7.81-11.34,12.96-24.3,17.93-36.83,2.27-5.73,4.63-11.65,7.19-17.31,4.25-9.13,9.71-18.52,14.99-27.6,7.29-12.53,14.83-25.5,19.63-38.41.14-.37.56-.57.93-.43.36.13.57.56.43.93-4.85,13.03-12.42,26.05-19.74,38.63-5.26,9.05-10.7,18.41-14.93,27.47-2.55,5.63-4.9,11.53-7.16,17.24-5.01,12.61-10.18,25.64-18.08,37.11-5.39,8.17-11.87,15.07-19.27,20.51-13.62,10.01-27.51,12.88-37.66,14.98-11.68,2.41-20.57,2.57-31.83,2.78-15.4.28-23.12.42-33.72-2.42-2.82-.76-7.26-1.95-12.47-4.27Z"/>
            <path class="cls-5" d="M77.72,292.91c-19.18-8.53-29.47-23.09-33.49-28.78-11.75-16.62-15.36-33.71-16.33-45.12-.03-.4.26-.75.66-.78.4-.03.75.26.78.66.94,11.23,4.5,28.05,16.06,44.4,4.22,5.96,15.4,21.78,36.66,29.84,16.94,6.41,32.03,4.72,41.04,3.72,10.02-1.12,17.36-3.47,21.76-5.24,2.13-.86,9.68-4.11,17.39-9.85,12.82-9.55,21.62-22.64,32.76-39.22,3.76-5.6,7.65-11.39,12.04-17.55,4.5-6.31,9.51-12.52,14.35-18.53,6.26-7.77,12.73-15.8,18.4-24.36,1.64-2.44,3.39-4.96,5.18-7.56,7.11-10.28,15.17-21.93,19.74-32.61.16-.37.58-.54.95-.38.3.16.54.58.38.95-4.63,10.81-12.73,22.52-19.88,32.86-1.79,2.59-3.53,5.11-5.17,7.54-5.7,8.62-12.19,16.67-18.47,24.46-4.83,5.99-9.83,12.19-14.3,18.47-4.38,6.14-8.26,11.92-12.02,17.51-11.22,16.69-20.08,29.87-33.1,39.57-7.84,5.84-15.54,9.16-17.71,10.03-4.48,1.81-11.96,4.2-22.14,5.34-9.14,1.02-24.45,2.73-41.72-3.8-1.31-.5-2.59-1.02-3.83-1.58Z"/>
            <path class="cls-2" d="M86.45,297.82c-28.53-12.7-49.14-47.85-52.59-76.42-.05-.4.24-.76.63-.81.4-.05.76.23.81.63,3.73,30.89,27.76,69.61,60.13,78.25,23.06,6.88,47.99-.21,62.06-17.64,5.54-6.61,10.12-14.15,14.56-21.43,5.52-9.06,11.23-18.42,18.82-26.16,7.26-7.92,16.05-14.51,24.54-20.89,6.47-4.85,13.15-9.87,19.02-15.39,15.59-14.09,28.15-30.78,36.32-48.28.17-.36.57-.49.96-.35.36.17.52.6.35.96-8.25,17.67-20.93,34.53-36.65,48.73-5.91,5.56-12.63,10.6-19.13,15.48-8.44,6.34-17.17,12.89-24.36,20.73-7.49,7.64-13.15,16.93-18.63,25.92-4.47,7.33-9.08,14.91-14.68,21.59-14.43,17.87-39.98,25.15-63.57,18.12-2.93-.79-5.8-1.81-8.58-3.05Z"/>
            <path class="cls-11" d="M94.99,303.91c-7.05-3.14-14.03-8.31-21.33-15.72-16.54-16.71-27.54-37.96-33.63-64.98-.09-.39.16-.78.55-.87.39-.09.78.16.87.55,6.02,26.74,16.9,47.77,33.24,64.28,11.53,11.71,22.21,17.69,33.6,18.83,20.96,2.17,39.38-10.19,48.09-32.25l.7-1.67c6.48-15.48,13.19-31.48,28.26-40.17,6.94-4.42,14.85-7.4,22.49-10.29,4.68-1.77,9.53-3.6,13.98-5.71,26.82-11.89,42.29-37.16,53.9-60.31.18-.36.61-.52.97-.32.36.18.5.61.32.97-11.72,23.38-27.37,48.91-54.59,60.98-4.48,2.13-9.36,3.97-14.07,5.75-7.58,2.86-15.41,5.82-22.25,10.17-14.67,8.46-21.28,24.23-27.67,39.49l-.69,1.65c-8.95,22.67-27.95,35.37-49.58,33.14-4.47-.45-8.82-1.61-13.15-3.53Z"/>
          </g>
        </g>
        <g id="_Radial_Repeat_-3" data-name="&amp;lt;Radial Repeat&amp;gt;">
          <g>
            <path class="cls-1" d="M133.06,271.93c-.09-.04-.17-.1-.24-.17-30.79-33.91-54.19-41.91-74.83-48.96-15.09-5.15-29.34-10.02-43.94-24.38-17.8-18.77-18.81-49.98-2.38-72.64,5.48-8.32,12.46-15.91,19.21-23.26,6.51-7.08,13.24-14.4,18.53-22.31,5.39-7.85,9.02-16.77,12.53-25.4,1.86-4.57,3.78-9.3,5.95-13.83C75.8,24.42,93.62,4.81,114.07.9c19.51-3.75,37.97,4.88,55.82,13.22l2.16,1.01c.36.17.52.6.35.96-.17.36-.54.52-.96.35l-2.16-1.01C151.63,7.19,133.38-1.34,114.34,2.32c-19.95,3.81-37.38,23.03-45.14,39.28-2.15,4.49-4.06,9.2-5.91,13.75-3.54,8.7-7.19,17.69-12.67,25.67-5.35,7.99-12.12,15.36-18.66,22.47-6.71,7.3-13.65,14.85-19.08,23.1-16.05,22.12-15.09,52.55,2.22,70.8,14.34,14.1,28.45,18.93,43.37,24.03,20.8,7.12,44.39,15.17,75.43,49.36.27.3.25.76-.05,1.02-.22.2-.53.24-.78.13Z"/>
            <path class="cls-21" d="M122.32,272.05c-.1-.05-.2-.12-.27-.21-2.28-2.89-4.52-5.8-6.75-8.7-15.25-19.83-29.65-38.55-52.87-47.33-.57-.21-1.33-.46-2.26-.77-5.16-1.71-14.77-4.88-25.03-12.34-4.63-3.37-14.26-10.37-20.55-22.45-8.56-16.46-6.09-32.38-5.28-37.61,1.85-11.95,7.49-21.38,17.72-38.49,5.17-8.64,7.87-12.29,10.49-15.81,2.4-3.23,4.66-6.28,8.66-12.97,6.49-10.88,9.78-18.4,12.43-24.44,3.39-7.75,5.84-13.35,12.59-21.29,4.18-4.92,11.96-14.07,23.6-19.75,28.26-13.79,60.93,2.43,70.27,7.73.35.2.47.64.27.99-.2.35-.63.45-.99.27-9.18-5.21-41.29-21.17-68.92-7.69-11.37,5.55-19.02,14.55-23.13,19.39-6.61,7.78-9.02,13.3-12.36,20.93-2.66,6.08-5.97,13.65-12.51,24.61-4.03,6.76-6.32,9.84-8.74,13.1-2.6,3.5-5.28,7.12-10.41,15.69-10.9,18.23-15.79,26.77-17.53,37.97-.79,5.11-3.2,20.68,5.14,36.72,6.12,11.77,15.57,18.65,20.11,21.95,10.08,7.33,19.55,10.46,24.63,12.14.95.31,1.73.57,2.32.79,23.58,8.91,38.12,27.8,53.5,47.8,2.23,2.89,4.46,5.8,6.74,8.69.25.31.19.77-.12,1.02-.22.17-.51.2-.74.09Z"/>
            <path class="cls-13" d="M113.41,272.07c-.1-.04-.18-.11-.26-.19-5.43-6.36-10.43-14.03-15.26-21.44-5.78-8.86-11.75-18.02-18.53-25.08-6.74-7.25-14.76-13.42-22.52-19.37-9.04-6.94-18.38-14.12-25.82-23.09-15.55-18.46-20.17-42.57-12.36-64.51,3.63-10.83,9.43-21.09,15.05-31.02,2.36-4.17,4.8-8.48,7.01-12.73,1.89-3.62,3.64-7.2,5.34-10.66,7.26-14.81,14.12-28.8,29.06-40.8,25.63-22.8,58.3-13.33,83.9-2.53.32.11.54.58.39.95s-.58.54-.95.39c-25.2-10.64-57.35-19.99-82.4,2.3-14.71,11.82-21.5,25.67-28.69,40.33-1.7,3.47-3.46,7.06-5.35,10.69-2.22,4.27-4.67,8.59-7.04,12.77-5.58,9.87-11.36,20.07-14.94,30.78-7.64,21.46-3.11,45.05,12.11,63.11,7.33,8.85,16.62,15.98,25.59,22.87,7.81,6,15.88,12.2,22.69,19.53,6.87,7.14,12.88,16.36,18.69,25.28,4.81,7.37,9.78,15,15.15,21.29.26.3.22.76-.08,1.02-.22.19-.52.22-.76.11Z"/>
            <path class="cls-23" d="M104.21,271.97c-.1-.04-.19-.11-.26-.2-8.86-10.71-16.35-23.78-23.59-36.41-5.21-9.08-10.59-18.47-16.33-26.66-3.6-5.02-7.54-10-11.35-14.82-8.42-10.64-17.12-21.64-23.1-34.21-4.38-8.75-7.12-17.82-8.13-26.94-1.86-16.81,2.6-30.27,5.86-40.1,3.75-11.32,8.06-19.1,13.51-28.95,7.45-13.47,11.19-20.23,18.96-27.99,3.9-3.9,12.03-12.01,25.56-17.09,6.96-2.61,12.67-3.37,15.1-3.7,20.21-2.71,39.64,3.72,52.39,9.57.36.17.52.6.36.96-.17.36-.59.52-.95.36h0c-12.6-5.76-31.73-12.11-51.6-9.45-2.39.32-7.98,1.07-14.79,3.62-13.24,4.97-21.21,12.93-25.04,16.75-7.62,7.61-11.33,14.31-18.71,27.66-5.42,9.79-9.69,17.52-13.4,28.71-3.22,9.7-7.62,22.99-5.79,39.49.99,8.95,3.68,17.86,7.99,26.47,5.92,12.43,14.57,23.37,22.93,33.95,3.82,4.83,7.77,9.83,11.39,14.88,5.78,8.25,11.18,17.67,16.4,26.78,7.21,12.58,14.67,25.59,23.45,36.2.25.31.21.77-.1,1.02-.22.18-.51.21-.76.1Z"/>
            <path class="cls-17" d="M95.15,273.23c-.11-.05-.21-.13-.29-.23-7.04-9.41-13.13-22.28-18.51-33.63-1.35-2.85-2.66-5.62-3.95-8.26-4.61-9.24-8.34-18.89-11.95-28.23-2.78-7.18-5.64-14.61-8.84-21.62-3.13-6.87-6.2-13.12-9.16-19.18-8.85-18.06-15.83-32.32-17.72-48.45-1.13-9.7-.16-18.03.17-20.35.67-4.78,2.34-12.45,6.45-21.84,3.69-8.43,9.86-22.54,24.15-34.22,17.92-14.65,37.56-16.47,44.95-17.15,20.27-1.87,36.87,3.55,47.23,8.42.36.17.52.6.35.96-.17.36-.59.51-.95.35h-.01c-10.18-4.8-26.54-10.13-46.48-8.29-7.27.67-26.59,2.45-44.17,16.83-14.02,11.46-20.11,25.37-23.74,33.69-3.15,7.21-5.41,14.83-6.34,21.46-.32,2.28-1.28,10.46-.16,19.98,1.86,15.88,8.8,30.04,17.58,47.98,2.97,6.06,6.04,12.33,9.18,19.21,3.22,7.05,6.1,14.5,8.88,21.7,3.59,9.3,7.31,18.92,11.9,28.11,1.29,2.64,2.61,5.43,3.96,8.28,5.35,11.29,11.41,24.09,18.36,33.38.24.32.17.77-.15,1.01-.22.16-.5.18-.73.08Z"/>
            <path class="cls-12" d="M85.42,274.55c-.12-.05-.22-.14-.3-.25-11.18-15.98-19.43-35.38-23.88-56.11-1.86-7.9-2.87-16.24-3.84-24.31-1.27-10.48-2.58-21.32-5.77-31.46-2.87-10.31-8.09-19.86-13.13-29.1-4.11-7.53-8.37-15.32-11.36-23.51-8.26-21.43-1.79-47.2,16.1-64.11,24.09-24.1,70.36-25.64,99.41-13.24h.01c.36.17.53.59.37.95-.16.37-.58.54-.95.38-28.61-12.22-74.15-10.75-97.83,12.95-17.49,16.53-23.81,41.67-15.75,62.57,2.96,8.1,7.19,15.84,11.28,23.32,5.08,9.31,10.34,18.93,13.25,29.38,3.23,10.25,4.54,21.15,5.82,31.7.97,8.03,1.97,16.33,3.82,24.17,4.41,20.55,12.58,39.77,23.65,55.6.23.33.15.78-.18,1.01-.22.15-.49.17-.71.07Z"/>
            <path class="cls-19" d="M77.79,275.86c-.12-.05-.23-.14-.31-.26-14.39-21.84-28.67-48.16-25.52-77.77.4-4.95,1.24-10.09,2.06-15.06,1.31-7.99,2.67-16.26,2.32-24.36.01-16.94-10.35-30.55-20.37-43.71l-1.08-1.42c-15.16-19.09-16.66-41.89-3.91-59.5,6.89-9.59,17.66-16.02,33.91-20.24,22.74-5.97,46.65-4.87,73.09,3.37.38.13.59.53.48.91-.12.38-.53.6-.91.48-26.18-8.16-49.82-9.25-72.29-3.35-15.91,4.13-26.42,10.39-33.1,19.69-12.35,17.07-10.86,39.2,3.88,57.77l1.09,1.43c10.17,13.36,20.67,27.17,20.66,44.56.35,8.22-1.02,16.56-2.34,24.62-.81,4.94-1.65,10.05-2.05,14.96-3.11,29.17,11.04,55.21,25.29,76.84.22.33.13.78-.21,1-.21.14-.48.15-.69.06Z"/>
          </g>
        </g>
      </g>
      <g>
        <path class="cls-20" d="M213.12,164.86h-55.25c-.04-.88-.14-1.74-.33-2.58l41.52-11.12c.34-.09.55-.44.45-.79-.09-.34-.44-.55-.79-.45l-41.51,11.12c-.26-.83-.6-1.63-1-2.4l37.23-21.49c.31-.18.41-.57.24-.88-.18-.31-.57-.41-.88-.24l-37.23,21.5c-.47-.73-1-1.42-1.59-2.06l30.4-30.4s0,0,0,0l8.66-8.66c.25-.25.25-.66,0-.91s-.66-.25-.91,0l-39.07,39.07c-.64-.59-1.32-1.12-2.06-1.59l21.5-37.23c.18-.31.07-.7-.24-.88-.31-.18-.7-.07-.88.24l-21.49,37.23c-.76-.4-1.56-.74-2.4-1l11.12-41.51c.09-.34-.11-.7-.45-.79-.35-.09-.7.11-.79.45l-11.12,41.52c-.84-.19-1.7-.29-2.58-.33v-55.25c0-.35-.29-.64-.64-.64s-.64.29-.64.64v55.25c-.88.04-1.74.14-2.58.33l-11.12-41.52c-.09-.34-.44-.55-.79-.45-.34.09-.55.44-.45.79l11.12,41.51c-.83.26-1.63.6-2.4,1l-21.49-37.23c-.18-.31-.57-.41-.88-.24-.31.18-.41.57-.24.88l21.5,37.23c-.73.47-1.42,1-2.06,1.59l-30.4-30.4-8.67-8.67c-.25-.25-.66-.25-.91,0s-.25.66,0,.91l8.67,8.67,30.4,30.4c-.59.64-1.12,1.32-1.59,2.06l-37.23-21.5c-.31-.18-.7-.07-.88.24-.18.31-.07.7.24.88l37.23,21.49c-.4.76-.74,1.56-1,2.4l-41.51-11.12c-.35-.09-.69.11-.79.45-.09.34.11.7.45.79l41.52,11.12c-.19.84-.29,1.7-.33,2.58h-55.25c-.35,0-.64.29-.64.64s.29.64.64.64h55.25c.04.88.14,1.74.33,2.58l-41.52,11.12c-.34.09-.55.44-.45.79.08.29.34.48.62.48.05,0,.11,0,.17-.02l41.51-11.12c.26.83.6,1.63,1,2.4l-37.23,21.49c-.31.18-.41.57-.24.88.12.21.33.32.56.32.11,0,.22-.03.32-.09l37.23-21.5c.47.73,1,1.42,1.59,2.06l-30.4,30.4-8.67,8.67c-.25.25-.25.66,0,.91.13.13.29.19.45.19s.33-.06.45-.19l8.67-8.67,30.4-30.4c.64.59,1.32,1.12,2.06,1.59l-21.5,37.23c-.18.31-.07.7.24.88.1.06.21.09.32.09.22,0,.44-.12.56-.32l21.49-37.23c.76.4,1.56.74,2.4,1.01l-11.12,41.51c-.09.34.11.7.45.79.06.02.11.02.17.02.28,0,.54-.19.62-.48l11.12-41.52c.84.19,1.7.29,2.58.33v55.25c0,.35.29.64.64.64s.64-.29.64-.64v-55.25c.88-.04,1.74-.14,2.58-.33l11.12,41.52c.08.29.34.48.62.48.05,0,.11,0,.17-.02.34-.09.55-.44.45-.79l-11.12-41.51c.83-.26,1.63-.6,2.4-1l21.49,37.23c.12.21.33.32.56.32.11,0,.22-.03.32-.09.31-.18.41-.57.24-.88l-21.5-37.23c.73-.47,1.42-1,2.06-1.59l30.4,30.4,8.67,8.67c.13.13.29.19.45.19s.33-.06.45-.19c.25-.25.25-.66,0-.91l-8.67-8.67-30.4-30.4c.59-.64,1.12-1.32,1.59-2.06l37.23,21.5c.1.06.21.09.32.09.22,0,.44-.12.56-.32.18-.31.07-.7-.24-.88l-37.23-21.49c.4-.76.74-1.56,1.01-2.4l41.51,11.12c.06.02.11.02.17.02.28,0,.54-.19.62-.48.09-.34-.11-.7-.45-.79l-41.52-11.12c.19-.83.29-1.7.33-2.58h55.25c.35,0,.64-.29.64-.64s-.29-.64-.64-.64ZM143.04,179.09c-7.49,0-13.58-6.09-13.58-13.58s6.09-13.58,13.58-13.58,13.58,6.09,13.58,13.58-6.09,13.58-13.58,13.58Z"/>
        <circle class="cls-20" cx="143.04" cy="165.66" r="8.9"/>
      </g>
    </g>
  </g>
</svg>