<?xml version="1.0" encoding="UTF-8"?>
<svg id="Layer_2" data-name="Layer 2" xmlns="http://www.w3.org/2000/svg" xmlns:xlink="http://www.w3.org/1999/xlink" viewBox="0 0 569.65 592.1">
  <defs>
    <style>
      .cls-1 {
        fill: url(#linear-gradient-15);
      }

      .cls-2 {
        fill: url(#linear-gradient-13);
      }

      .cls-3 {
        fill: url(#linear-gradient-2);
      }

      .cls-4 {
        fill: url(#linear-gradient-10);
      }

      .cls-5 {
        fill: url(#linear-gradient-12);
      }

      .cls-6 {
        fill: url(#linear-gradient-4);
      }

      .cls-7 {
        fill: url(#linear-gradient-3);
      }

      .cls-8 {
        fill: url(#linear-gradient-5);
      }

      .cls-9 {
        fill: url(#linear-gradient-8);
      }

      .cls-10 {
        fill: url(#linear-gradient-14);
      }

      .cls-11 {
        fill: url(#linear-gradient-20);
      }

      .cls-12 {
        fill: url(#linear-gradient-17);
      }

      .cls-13 {
        fill: url(#linear-gradient-7);
      }

      .cls-14 {
        fill: url(#linear-gradient-9);
      }

      .cls-15 {
        fill: url(#linear-gradient-11);
      }

      .cls-16 {
        fill: url(#linear-gradient-19);
      }

      .cls-17 {
        fill: url(#linear-gradient-6);
      }

      .cls-18 {
        fill: url(#linear-gradient-21);
      }

      .cls-19 {
        fill: #e6b65c;
      }

      .cls-20 {
        fill: url(#linear-gradient-16);
      }

      .cls-21 {
        fill: url(#linear-gradient);
      }

      .cls-22 {
        fill: url(#linear-gradient-18);
      }
    </style>
    <linearGradient id="linear-gradient" x1="-154.25" y1="-342.71" x2="368.76" y2="-342.71" gradientTransform="translate(117.82 506.48) rotate(23.99)" gradientUnits="userSpaceOnUse">
      <stop offset="0" stop-color="#783e8d"/>
      <stop offset="1" stop-color="#774fd4"/>
    </linearGradient>
    <linearGradient id="linear-gradient-2" x1="-152.34" y1="-340.94" x2="361.21" y2="-340.94" xlink:href="#linear-gradient"/>
    <linearGradient id="linear-gradient-3" x1="-150.57" y1="-339.26" x2="353.54" y2="-339.26" xlink:href="#linear-gradient"/>
    <linearGradient id="linear-gradient-4" x1="-148.54" y1="-338.27" x2="344.44" y2="-338.27" xlink:href="#linear-gradient"/>
    <linearGradient id="linear-gradient-5" x1="-149.11" y1="-338.54" x2="334.5" y2="-338.54" xlink:href="#linear-gradient"/>
    <linearGradient id="linear-gradient-6" x1="-149.68" y1="-342.81" x2="326.18" y2="-342.81" xlink:href="#linear-gradient"/>
    <linearGradient id="linear-gradient-7" x1="-150.65" y1="-347.7" x2="318.42" y2="-347.7" xlink:href="#linear-gradient"/>
    <linearGradient id="linear-gradient-8" x1="-146.36" y1="-188.29" x2="307.86" y2="-188.29" gradientTransform="translate(117.82 506.48) rotate(23.99)" gradientUnits="userSpaceOnUse">
      <stop offset="0" stop-color="#fb896d"/>
      <stop offset="1" stop-color="#f26188"/>
    </linearGradient>
    <linearGradient id="linear-gradient-9" x1="-132.63" y1="-181.96" x2="286.82" y2="-181.96" xlink:href="#linear-gradient-8"/>
    <linearGradient id="linear-gradient-10" x1="-119.86" y1="-176.67" x2="263.47" y2="-176.67" xlink:href="#linear-gradient-8"/>
    <linearGradient id="linear-gradient-11" x1="-105.92" y1="-171.61" x2="250.61" y2="-171.61" xlink:href="#linear-gradient-8"/>
    <linearGradient id="linear-gradient-12" x1="-93.33" y1="-167.25" x2="265.68" y2="-167.25" xlink:href="#linear-gradient-8"/>
    <linearGradient id="linear-gradient-13" x1="-81.02" y1="-161.87" x2="282.32" y2="-161.87" xlink:href="#linear-gradient-8"/>
    <linearGradient id="linear-gradient-14" x1="-68.82" y1="-156.57" x2="295.67" y2="-156.57" xlink:href="#linear-gradient-8"/>
    <linearGradient id="linear-gradient-15" x1="-197.2" y1="-282.01" x2="134.5" y2="-282.01" gradientTransform="translate(117.82 506.48) rotate(23.99)" gradientUnits="userSpaceOnUse">
      <stop offset="0" stop-color="#bd4071"/>
      <stop offset="1" stop-color="#954a8f"/>
    </linearGradient>
    <linearGradient id="linear-gradient-16" x1="-189.19" y1="-273.08" x2="115.72" y2="-273.08" xlink:href="#linear-gradient-15"/>
    <linearGradient id="linear-gradient-17" x1="-189" y1="-264.09" x2="100.07" y2="-264.09" xlink:href="#linear-gradient-15"/>
    <linearGradient id="linear-gradient-18" x1="-194.23" y1="-254.82" x2="83.82" y2="-254.82" xlink:href="#linear-gradient-15"/>
    <linearGradient id="linear-gradient-19" x1="-202.57" y1="-244.62" x2="68.88" y2="-244.62" xlink:href="#linear-gradient-15"/>
    <linearGradient id="linear-gradient-20" x1="-211.2" y1="-234.17" x2="52.79" y2="-234.17" xlink:href="#linear-gradient-15"/>
    <linearGradient id="linear-gradient-21" x1="-218.97" y1="-224.31" x2="40.42" y2="-224.31" xlink:href="#linear-gradient-15"/>
  </defs>
  <g id="Layer_1-2" data-name="Layer 1">
    <g>
      <g>
        <g id="_Radial_Repeat_" data-name="&amp;lt;Radial Repeat&amp;gt;">
          <g>
            <path class="cls-21" d="M483.91,491.34c-.22-.1-.42-.26-.58-.47-.44-.63-.29-1.5.34-1.94l3.75-2.62c30.72-21.47,62.49-43.67,74.72-78.93,12.84-36.92-2.42-84.46-22.03-113.02-5.42-7.9-11.42-15.61-17.22-23.07-11.09-14.26-22.56-29.01-30.58-45.82-8.18-16.62-13.93-34.98-19.5-52.73-5.71-18.2-11.61-37.03-20.13-54.02-21.42-48.03-73.05-75.69-120.12-64.42-37.31,10.34-58.9,29.2-81.77,49.17-31.86,27.83-67.98,59.37-154.83,78.21-.76.16-1.49-.32-1.66-1.07-.16-.75.31-1.5,1.07-1.66,86.15-18.69,121.98-49.98,153.59-77.59,23.11-20.18,44.94-39.25,82.91-49.76,48.4-11.6,101.4,16.74,123.33,65.92,8.59,17.14,14.53,36.07,20.27,54.38,5.54,17.66,11.26,35.92,19.35,52.35,7.9,16.54,19.27,31.17,30.28,45.32,5.83,7.49,11.85,15.24,17.32,23.21,19.99,29.11,35.52,77.68,22.36,115.51-12.52,36.12-44.66,58.58-75.75,80.31l-3.74,2.62c-.42.29-.94.32-1.37.13Z"/>
            <path class="cls-3" d="M486.59,477.25c-.26-.12-.48-.31-.63-.57-.39-.66-.17-1.52.5-1.91,17.52-10.29,75-48.47,79.12-107.45,1.7-24.29-5.95-45.7-10.06-57.2-6.6-18.5-13.48-27.83-22.99-40.74-7.57-10.28-17-23.08-28.97-44.52-7.38-13.22-10.31-19.99-13.41-27.16-3.33-7.69-6.77-15.65-16.14-32.45-19.9-35.72-29.41-52.08-46.41-65.74-7.76-6.24-31.39-25.23-66.13-26.77-25.52-1.12-46.06,8.02-55.93,12.4-21.91,9.74-36.23,22.51-43.92,29.37-1.44,1.29-2.63,2.34-3.55,3.1-37.55,30.74-83,36.78-131.11,43.17-6.97.93-13.97,1.86-20.98,2.87-.76.11-1.47-.42-1.58-1.18-.11-.76.42-1.47,1.18-1.58,7.02-1.02,14.03-1.95,21.01-2.87,47.71-6.34,92.77-12.33,129.72-42.57.9-.74,2.06-1.77,3.46-3.02,7.81-6.96,22.34-19.92,44.65-29.84,10.06-4.48,31.01-13.79,57.18-12.64,35.66,1.56,59.81,20.99,67.75,27.38,18.13,14.58,28.42,33.04,47.09,66.56,9.43,16.93,12.9,24.94,16.26,32.7,3.07,7.1,5.98,13.81,13.29,26.91,11.89,21.29,21.25,34.01,28.78,44.23,9.65,13.1,16.63,22.57,23.37,41.46,4.18,11.69,11.95,33.47,10.21,58.33-4.21,60.34-62.67,99.19-80.49,109.66-.4.24-.88.25-1.27.07Z"/>
            <path class="cls-7" d="M487.21,464.34c-.21-.09-.4-.24-.54-.43-.47-.61-.34-1.49.27-1.95,41.98-31.77,88.49-76.34,75.45-139.53-5.55-35.89-22.09-60.53-39.61-86.62-4.15-6.17-8.43-12.55-12.66-19.2-4.97-7.81-9.82-16.05-14.51-24.01-11.07-18.8-22.52-38.23-36.92-54.52-28.42-33.37-72.08-48.52-116.82-40.54-21.81,3.71-42.62,12.32-62.75,20.64-17.5,7.24-35.6,14.72-54.37,19.02-18.51,4.57-39.66,5.71-60.12,6.82-16.91.92-34.4,1.87-50.05,4.77-.76.14-1.48-.36-1.62-1.12-.14-.76.36-1.48,1.12-1.62,15.83-2.93,33.41-3.89,50.41-4.81,20.33-1.1,41.35-2.24,59.62-6.75,18.57-4.25,36.55-11.69,53.95-18.88,20.27-8.38,41.23-17.05,63.33-20.81,45.71-8.16,90.35,7.34,119.4,41.46,14.56,16.47,26.08,36.02,37.22,54.93,4.68,7.94,9.51,16.16,14.46,23.93,4.21,6.62,8.49,12.99,12.62,19.14,17.7,26.35,34.41,51.24,40.04,87.68,13.34,64.64-33.88,109.98-76.51,142.24-.42.32-.96.36-1.41.16Z"/>
            <path class="cls-6" d="M486.84,450.36c-.22-.1-.42-.26-.57-.47-.45-.63-.3-1.5.33-1.94,21.73-15.39,50.71-41.23,65.38-76.9,1.77-4.3,5.9-14.36,8.19-28.12,4.46-26.84-1.13-47.79-3.82-57.85-5.35-20.02-12.95-32.65-28.1-57.8-11.1-18.44-19.87-33.01-34.95-49.96-13.08-14.7-31.02-34.95-60.23-47.64-15.88-6.96-33.31-11.05-51.8-12.15-26.41-2.1-52.97,1.79-78.64,5.55-11.73,1.72-23.86,3.49-35.76,4.67-19.31,1.7-40.21,1.63-60.42,1.57-27.9-.09-56.75-.18-82.89,4.24-.75.12-1.48-.38-1.61-1.14-.13-.76.38-1.48,1.14-1.61,26.38-4.46,55.34-4.37,83.36-4.28,20.15.07,40.98.13,60.15-1.56,11.82-1.16,23.92-2.93,35.61-4.65,25.83-3.79,52.54-7.7,79.24-5.58,18.79,1.12,36.54,5.28,52.72,12.38.24.1.48.21.72.32,29.38,13.07,47.33,33.26,60.47,48.03,15.25,17.14,24.08,31.8,35.25,50.37,15.28,25.39,22.95,38.13,28.4,58.52,2.74,10.25,8.44,31.59,3.88,59.03-2.34,14.07-6.56,24.34-8.36,28.72-14.93,36.29-44.32,62.51-66.35,78.11-.42.3-.94.33-1.37.14Z"/>
            <path class="cls-8" d="M485.07,437.89c-.23-.1-.43-.26-.58-.48-.44-.63-.28-1.5.35-1.94,17.81-12.38,42.42-34.49,58.54-69.49,5.88-12.77,21.5-46.68,14.45-89.79-5.62-34.39-22.94-57.92-33.29-71.97-11.5-15.61-22.48-25.59-29.66-31.21-3.48-2.72-16.24-12.18-33.15-19.5-28.25-12.18-58.53-14.25-96.87-16.87-12.95-.88-26.35-1.8-40.84-3.19-14.84-1.43-30.02-3.79-44.69-6.08-18.97-2.96-38.58-6.02-58.31-7.22-5.64-.39-11.53-.87-17.58-1.37-23.97-1.95-51.14-4.17-73.32-1.52-.76.09-1.46-.45-1.55-1.22-.09-.76.45-1.46,1.22-1.55,22.46-2.68,49.77-.45,73.88,1.51,6.03.49,11.91.97,17.53,1.36,19.84,1.2,39.52,4.27,58.55,7.25,14.63,2.29,29.77,4.65,44.52,6.06,14.45,1.39,27.83,2.3,40.76,3.18,38.61,2.64,69.1,4.72,97.79,17.09,17.39,7.53,30.21,17.09,33.76,19.86,7.32,5.73,18.51,15.89,30.19,31.76,10.5,14.26,28.07,38.12,33.8,73.18,7.18,43.95-8.7,78.43-14.67,91.41-16.38,35.57-41.39,58.03-59.48,70.61-.41.29-.93.32-1.36.13Z"/>
            <path class="cls-17" d="M483.28,425.7c-.21-.09-.4-.24-.55-.44-.46-.61-.34-1.49.28-1.95,47.89-35.93,89.25-113.24,72.55-175.49-10.72-45.04-46.52-79.76-89.11-86.45-16.35-2.86-33.32-3.26-49.72-3.65-20.4-.48-41.5-.98-61.7-6.18-20.18-4.48-39.62-12.78-58.42-20.8-14.31-6.11-29.11-12.42-43.94-16.89-38.48-12.43-78.38-17.29-115.41-14.08-.77.06-1.44-.5-1.51-1.27-.07-.77.5-1.44,1.27-1.51,37.4-3.25,77.67,1.66,116.48,14.19,14.95,4.5,29.83,10.85,44.21,16.99,18.68,7.97,38,16.21,57.98,20.65,19.94,5.13,40.87,5.63,61.12,6.11,16.51.39,33.58.8,50.11,3.69,43.65,6.86,80.38,42.43,91.35,88.52,16.99,63.34-24.96,141.93-73.58,178.4-.42.31-.96.36-1.4.16Z"/>
            <path class="cls-13" d="M480.26,413.75c-.17-.08-.33-.18-.46-.33-.52-.57-.49-1.45.08-1.97,38.77-35.77,63.35-74.12,75.13-117.25,8.42-30.49,8.11-54.04-.96-74.11-16.55-37-54.87-55.82-100-49.11l-3.45.44c-32.03,4.09-65.13,8.32-94.13-8.44-14.04-7.31-26.62-17.62-38.79-27.59-7.45-6.11-15.16-12.42-22.95-17.8-45.63-33.25-102.63-34.73-152.37-31.79-.76.05-1.43-.54-1.47-1.31-.05-.77.54-1.43,1.31-1.47,50.24-2.97,107.84-1.44,154.14,32.3,7.86,5.42,15.61,11.78,23.11,17.92,12.06,9.88,24.53,20.1,38.36,27.31,28.23,16.32,60.86,12.15,92.43,8.12l3.42-.44c46.39-6.9,85.84,12.54,102.93,50.73,9.35,20.7,9.7,44.85,1.1,75.99-11.93,43.64-36.76,82.42-75.93,118.56-.42.39-1.02.47-1.51.25Z"/>
          </g>
        </g>
        <g id="_Radial_Repeat_-2" data-name="&amp;lt;Radial Repeat&amp;gt;">
          <g>
            <path class="cls-9" d="M75.82,529.5c-13.8-6.14-26.32-14.54-35.76-25.47-25.02-28.9-28.4-67.97-31.67-105.76l-.4-4.55c-.07-.77.5-1.44,1.27-1.51.76-.07,1.44.5,1.51,1.27l.39,4.55c3.23,37.34,6.57,75.95,31,104.17,25.56,29.58,74.36,40.14,108.89,37.43,9.55-.74,19.23-2.08,28.6-3.37,17.9-2.47,36.4-5.03,54.96-3.58,18.47,1.23,37.26,5.42,55.42,9.48,18.62,4.16,37.87,8.46,56.85,9.58,52.31,5.46,102.08-25.42,115.85-71.82,9.71-37.48,4.17-65.61-1.69-95.4-8.17-41.51-17.43-88.56,9.68-173.19.23-.74,1.02-1.14,1.75-.9.73.23,1.14,1.02.9,1.75-26.89,83.95-17.71,130.63-9.6,171.81,5.93,30.11,11.52,58.54,1.64,96.68-14.15,47.71-65.2,79.44-118.76,73.85-19.13-1.12-38.5-5.45-57.23-9.63-18.06-4.03-36.73-8.2-55.01-9.42-18.28-1.43-36.63,1.1-54.38,3.56-9.4,1.3-19.13,2.64-28.76,3.39-22.51,1.76-51-2.03-75.46-12.91Z"/>
            <path class="cls-14" d="M90.26,536.7c-5.55-2.47-11.19-5.48-16.69-9.19-50.17-33.83-54.57-103.87-54.72-124.53,0-.77.61-1.4,1.38-1.4.77,0,1.4.62,1.4,1.38.15,20.32,4.46,89.18,53.5,122.25,20.2,13.62,42.56,17.7,54.57,19.89,19.32,3.53,30.84,2.24,46.78.47,12.69-1.42,28.48-3.18,53.04-2.83,15.14.22,22.47,1.07,30.23,1.96,8.33.96,16.94,1.96,36.16,2.25,40.87.62,59.8.57,80.14-7.32,9.29-3.6,37.55-14.56,56.24-43.89,13.73-21.54,16.09-43.89,17.22-54.63,2.52-23.86-1.38-42.64-3.48-52.74-.39-1.89-.71-3.44-.91-4.62-7.85-47.89,9.65-90.27,28.17-135.13,2.68-6.5,5.38-13.03,8.01-19.61.29-.72,1.1-1.06,1.81-.78.84.34,1.06,1.1.78,1.81-2.63,6.59-5.33,13.13-8.02,19.64-18.37,44.49-35.71,86.51-27.99,133.62.19,1.15.5,2.66.88,4.5,2.13,10.24,6.09,29.31,3.52,53.59-1.16,10.95-3.56,33.75-17.64,55.84-19.18,30.09-48.09,41.3-57.58,44.99-21.7,8.41-42.83,8.09-81.19,7.51-19.37-.3-28.05-1.3-36.44-2.27-7.69-.89-14.95-1.73-29.96-1.94-24.38-.35-40.08,1.4-52.69,2.81-16.18,1.81-27.86,3.11-47.59-.49-8.97-1.64-23.6-4.31-38.93-11.13Z"/>
            <path class="cls-4" d="M104.28,543.51c-54.06-24.05-68.31-83.38-74.55-133.37-.09-.77.44-1.46,1.21-1.56.76-.09,1.46.44,1.56,1.21,6.52,52.24,21.83,114.84,83.11,135.11,33.86,13.15,63.47,11.14,94.81,9.01,7.42-.5,15.09-1.02,22.96-1.36,9.25-.4,18.81-.48,28.05-.56,21.81-.19,44.37-.38,65.68-4.71,43.11-7.92,78.06-38.16,93.52-80.9,7.69-20.74,10.64-43.07,13.5-64.66,2.48-18.77,5.05-38.19,10.71-56.59,5.3-18.31,14.88-37.2,24.14-55.46,7.66-15.11,15.59-30.74,20.9-45.74.25-.73,1.05-1.1,1.78-.85.73.21,1.1,1.05.85,1.78-5.37,15.18-13.34,30.88-21.04,46.07-9.21,18.15-18.73,36.92-23.96,55-5.6,18.21-8.15,37.5-10.62,56.16-2.88,21.74-5.85,44.23-13.64,65.25-15.8,43.67-51.54,74.58-95.61,82.68-21.54,4.38-44.24,4.57-66.18,4.76-9.22.08-18.75.16-27.95.56-7.84.34-15.49.86-22.9,1.36-31.66,2.15-61.57,4.18-95.94-9.16-3.61-1.2-7.07-2.54-10.38-4.01Z"/>
            <path class="cls-15" d="M126.25,552.82c-8.9-3.96-18.97-9.63-29.07-17.94-11.04-9.08-17.81-17.86-20.69-21.61-23.96-31.07-31.97-69.64-34.47-96.51-.07-.77.49-1.45,1.26-1.52.77-.07,1.45.49,1.52,1.26,2.47,26.52,10.36,64.53,33.9,95.08,2.83,3.67,9.47,12.27,20.26,21.15,21.01,17.28,41.95,22.91,52.01,25.61,20.01,5.38,34.74,5.11,64.1,4.57,21.52-.39,38.51-.7,60.74-5.29,19.27-3.98,45.66-9.43,71.38-28.34,13.97-10.27,26.22-23.32,36.42-38.78,15.03-21.82,24.93-46.76,34.51-70.87,4.38-11.02,8.9-22.41,13.84-33.31,8.19-17.57,18.69-35.63,28.85-53.1,14.03-24.12,28.53-49.06,37.78-73.91.27-.72,1.07-1.09,1.79-.82.69.25,1.09,1.07.82,1.79-9.33,25.08-23.89,50.12-37.98,74.34-10.13,17.41-20.6,35.42-28.73,52.87-4.91,10.83-9.42,22.19-13.79,33.18-9.63,24.26-19.6,49.34-34.79,71.4-10.37,15.72-22.84,29-37.08,39.47-26.21,19.27-52.94,24.79-72.47,28.82-22.48,4.64-39.59,4.95-61.25,5.35-29.62.54-44.49.81-64.88-4.66-5.43-1.46-13.97-3.75-23.99-8.21Z"/>
            <path class="cls-5" d="M149.56,563.64c-36.9-16.42-56.7-44.42-64.45-55.38-22.62-31.98-29.57-64.86-31.41-86.81-.06-.77.51-1.44,1.27-1.51.77-.06,1.44.51,1.51,1.27,1.82,21.61,8.65,53.97,30.91,85.44,8.11,11.47,29.62,41.92,70.54,57.41,32.59,12.33,61.63,9.09,78.98,7.15,19.27-2.15,33.4-6.67,41.86-10.08,4.1-1.65,18.63-7.92,33.46-18.96,24.68-18.38,41.61-43.57,63.05-75.47,7.24-10.77,14.73-21.91,23.17-33.76,8.66-12.14,18.29-24.1,27.62-35.66,12.05-14.94,24.5-30.4,35.4-46.88,3.16-4.69,6.52-9.55,9.97-14.54,13.68-19.78,29.18-42.21,37.98-62.74.3-.71,1.12-1.03,1.83-.73.57.31,1.03,1.12.73,1.83-8.91,20.79-24.5,43.34-38.25,63.23-3.44,4.97-6.8,9.83-9.94,14.5-10.96,16.58-23.46,32.08-35.55,47.08-9.3,11.53-18.91,23.46-27.51,35.53-8.42,11.82-15.9,22.95-23.13,33.7-21.59,32.12-38.64,57.49-63.7,76.15-15.09,11.24-29.9,17.62-34.08,19.31-8.62,3.48-23.01,8.08-42.6,10.27-17.6,1.96-47.05,5.25-80.27-7.32-2.53-.96-4.99-1.97-7.38-3.03Z"/>
            <path class="cls-2" d="M166.35,573.09c-54.9-24.43-94.56-92.08-101.19-147.05-.09-.77.45-1.46,1.21-1.55.77-.1,1.46.45,1.55,1.21,7.17,59.44,53.42,133.94,115.71,150.58,44.36,13.23,92.34-.41,119.42-33.95,10.65-12.73,19.48-27.22,28.02-41.23,10.62-17.43,21.6-35.45,36.21-50.35,13.97-15.24,30.88-27.92,47.23-40.2,12.44-9.34,25.31-19,36.6-29.61,30.01-27.12,54.17-59.24,69.89-92.91.33-.7,1.09-.93,1.85-.67.7.33,1,1.16.67,1.85-15.88,34.01-40.27,66.44-70.53,93.78-11.38,10.7-24.31,20.41-36.82,29.79-16.24,12.2-33.04,24.8-46.88,39.88-14.41,14.7-25.31,32.59-35.85,49.88-8.6,14.1-17.48,28.68-28.25,41.55-27.77,34.38-76.93,48.4-122.33,34.86-5.64-1.51-11.16-3.49-16.52-5.87Z"/>
            <path class="cls-10" d="M182.79,584.81c-13.57-6.04-27-15.98-41.05-30.24-31.83-32.15-53-73.05-64.71-125.04-.17-.75.3-1.5,1.05-1.67.75-.17,1.5.3,1.67,1.05,11.59,51.46,32.52,91.92,63.97,123.69,22.19,22.53,42.74,34.04,64.66,36.23,40.33,4.17,75.78-19.61,92.53-62.05l1.35-3.21c12.48-29.78,25.38-60.58,54.37-77.29,13.35-8.5,28.57-14.24,43.28-19.79,9.02-3.4,18.34-6.92,26.89-10.98,51.6-22.88,81.38-71.51,103.72-116.06.34-.69,1.18-.99,1.87-.62.69.35.97,1.18.62,1.87-22.55,45-52.67,94.12-105.04,117.35-8.63,4.1-18.01,7.63-27.08,11.06-14.58,5.5-29.66,11.19-42.82,19.57-28.23,16.27-40.95,46.63-53.25,75.99l-1.33,3.18c-17.22,43.62-53.78,68.07-95.4,63.77-8.6-.86-16.98-3.09-25.31-6.8Z"/>
          </g>
        </g>
        <g id="_Radial_Repeat_-3" data-name="&amp;lt;Radial Repeat&amp;gt;">
          <g>
            <path class="cls-1" d="M256.05,523.26c-.17-.08-.33-.19-.46-.33-59.26-65.26-104.27-80.64-143.99-94.22-29.03-9.92-56.46-19.29-84.55-46.92-34.24-36.11-36.2-96.18-4.58-139.77,10.54-16.01,23.97-30.62,36.96-44.75,12.52-13.62,25.47-27.7,35.66-42.92,10.38-15.11,17.36-32.28,24.11-48.88,3.58-8.8,7.28-17.89,11.44-26.61C145.86,46.98,180.15,9.25,219.49,1.74c37.53-7.22,73.06,9.4,107.4,25.44l4.16,1.94c.7.33,1,1.15.67,1.85-.33.7-1.04.99-1.85.67l-4.16-1.94c-33.94-15.86-69.05-32.27-105.7-25.23-38.39,7.34-71.94,44.32-86.86,75.59-4.13,8.64-7.82,17.7-11.38,26.45-6.81,16.73-13.84,34.04-24.38,49.39-10.3,15.38-23.32,29.55-35.91,43.25-12.91,14.05-26.27,28.57-36.72,44.45-30.88,42.57-29.03,101.11,4.27,136.24,27.6,27.14,54.74,36.42,83.46,46.23,40.03,13.69,85.41,29.19,145.15,94.98.52.57.48,1.45-.09,1.97-.42.38-1.02.46-1.5.24Z"/>
            <path class="cls-20" d="M235.38,523.51c-.2-.09-.38-.23-.53-.41-4.38-5.57-8.69-11.17-12.98-16.75-29.35-38.16-57.05-74.19-101.73-91.07-1.09-.41-2.56-.89-4.34-1.48-9.93-3.28-28.42-9.38-48.17-23.74-8.91-6.48-27.45-19.96-39.54-43.2-16.47-31.67-11.72-62.3-10.16-72.37,3.56-23,14.4-41.14,34.09-74.06,9.94-16.63,15.15-23.64,20.18-30.43,4.62-6.22,8.97-12.09,16.66-24.97,12.49-20.94,18.82-35.41,23.91-47.04,6.52-14.91,11.23-25.69,24.22-40.97,8.04-9.47,23.01-27.08,45.41-38.01,54.38-26.53,117.24,4.68,135.22,14.87.67.38.9,1.23.52,1.9-.38.67-1.22.87-1.9.52-17.66-10.03-79.46-40.73-132.62-14.8-21.88,10.67-36.6,28-44.51,37.31-12.72,14.97-17.37,25.59-23.79,40.28-5.12,11.7-11.49,26.26-24.07,47.35-7.76,13-12.16,18.93-16.81,25.2-5,6.73-10.17,13.69-20.03,30.2-20.98,35.09-30.39,51.51-33.73,73.06-1.53,9.84-6.17,39.79,9.89,70.65,11.79,22.66,29.96,35.88,38.7,42.23,19.39,14.11,37.61,20.12,47.4,23.35,1.83.6,3.34,1.1,4.46,1.52,45.38,17.14,73.36,53.49,102.96,91.97,4.28,5.57,8.59,11.16,12.96,16.72.48.6.37,1.48-.23,1.96-.42.33-.97.38-1.43.18Z"/>
            <path class="cls-12" d="M218.23,523.54c-.18-.08-.35-.2-.49-.37-10.45-12.24-20.07-26.99-29.37-41.25-11.12-17.05-22.62-34.68-35.66-48.26-12.97-13.95-28.4-25.82-43.33-37.28-17.39-13.36-35.37-27.18-49.68-44.44-29.92-35.52-38.81-81.92-23.79-124.14,6.98-20.84,18.15-40.59,28.96-59.69,4.54-8.03,9.24-16.32,13.49-24.49,3.63-6.96,7.01-13.85,10.27-20.51,13.97-28.5,27.17-55.42,55.91-78.51,49.32-43.88,112.18-25.65,161.44-4.86.62.21,1.04,1.12.74,1.83-.3.71-1.12,1.04-1.83.74-48.5-20.47-110.36-38.47-158.56,4.42-28.31,22.75-41.37,49.4-55.2,77.61-3.27,6.67-6.66,13.58-10.3,20.57-4.28,8.21-8.99,16.53-13.54,24.58-10.75,18.98-21.85,38.61-28.75,59.23-14.7,41.3-5.98,86.68,23.3,121.44,14.11,17.03,31.97,30.75,49.24,44.01,15.02,11.54,30.55,23.47,43.66,37.58,13.21,13.75,24.78,31.49,35.97,48.65,9.25,14.19,18.82,28.86,29.16,40.96.5.59.43,1.46-.16,1.96-.42.36-1,.42-1.47.21Z"/>
            <path class="cls-22" d="M200.54,523.35c-.19-.09-.37-.21-.51-.38-17.05-20.62-31.46-45.75-45.39-70.06-10.02-17.48-20.37-35.55-31.42-51.31-6.92-9.66-14.5-19.24-21.83-28.52-16.19-20.48-32.94-41.65-44.45-65.84-8.43-16.84-13.7-34.29-15.64-51.85-3.59-32.34,5-58.25,11.27-77.17,7.22-21.78,15.5-36.75,25.99-55.71,14.34-25.92,21.54-38.93,36.48-53.86,7.51-7.5,23.14-23.11,49.18-32.88,13.4-5.02,24.37-6.49,29.06-7.12,38.89-5.21,76.28,7.16,100.82,18.41.7.32,1.01,1.15.68,1.85-.32.7-1.14,1-1.83.69h-.01c-24.24-11.08-61.06-23.31-99.29-18.18-4.59.61-15.35,2.05-28.45,6.97-25.48,9.56-40.82,24.88-48.19,32.24-14.66,14.64-21.8,27.54-36.01,53.23-10.42,18.84-18.65,33.71-25.79,55.25-6.19,18.67-14.67,44.25-11.15,75.98,1.91,17.22,7.08,34.36,15.38,50.93,11.39,23.93,28.03,44.98,44.13,65.33,7.35,9.3,14.95,18.91,21.92,28.63,11.12,15.87,21.51,34,31.56,51.54,13.88,24.21,28.22,49.24,45.12,69.67.49.59.4,1.47-.19,1.96-.42.35-.99.41-1.46.2Z"/>
            <path class="cls-16" d="M183.1,525.76c-.21-.09-.4-.24-.55-.44-13.54-18.11-25.27-42.87-35.62-64.72-2.59-5.48-5.12-10.81-7.6-15.89-8.87-17.78-16.05-36.35-22.99-54.31-5.34-13.82-10.86-28.11-17.02-41.61-6.03-13.21-11.93-25.25-17.63-36.9-17.02-34.75-30.46-62.19-34.09-93.22-2.18-18.66-.31-34.7.32-39.17,1.29-9.2,4.5-23.96,12.4-42.02,7.1-16.22,18.98-43.37,46.48-65.86,34.48-28.2,72.27-31.69,86.5-33,39.01-3.59,70.94,6.82,90.89,16.2.69.33,1,1.16.67,1.85-.32.69-1.14.99-1.83.68h-.03c-19.59-9.24-51.07-19.5-89.45-15.96-13.99,1.29-51.17,4.72-84.99,32.38-26.97,22.06-38.69,48.83-45.69,64.82-6.07,13.87-10.4,28.53-12.2,41.29-.61,4.39-2.46,20.12-.32,38.45,3.57,30.56,16.93,57.81,33.83,92.32,5.71,11.66,11.62,23.72,17.66,36.96,6.19,13.57,11.73,27.9,17.08,41.76,6.92,17.9,14.07,36.41,22.89,54.09,2.49,5.09,5.02,10.44,7.62,15.93,10.29,21.73,21.95,46.36,35.33,64.24.46.62.34,1.49-.28,1.95-.42.31-.96.35-1.4.16Z"/>
            <path class="cls-11" d="M164.37,528.31c-.22-.1-.42-.26-.58-.47-21.51-30.75-37.4-68.09-45.95-107.97-3.58-15.21-5.52-31.26-7.39-46.78-2.44-20.17-4.96-41.02-11.11-60.54-5.53-19.83-15.56-38.21-25.27-55.99-7.92-14.49-16.1-29.48-21.86-45.24-15.89-41.24-3.45-90.82,30.98-123.37,46.36-46.38,135.4-49.35,191.29-25.48h.02c.69.32,1.02,1.13.72,1.83-.3.71-1.12,1.04-1.83.74-55.06-23.52-142.69-20.68-188.25,24.91-33.65,31.81-45.82,80.18-30.31,120.4,5.7,15.59,13.83,30.48,21.7,44.88,9.78,17.91,19.9,36.43,25.49,56.53,6.21,19.72,8.74,40.7,11.2,60.99,1.87,15.45,3.8,31.42,7.35,46.5,8.48,39.55,24.22,76.53,45.51,106.98.44.63.29,1.5-.34,1.94-.42.29-.94.32-1.37.13Z"/>
            <path class="cls-18" d="M149.7,530.83c-.24-.11-.45-.28-.6-.51-27.69-42.03-55.18-92.67-49.1-149.65.77-9.52,2.39-19.41,3.96-28.97,2.53-15.38,5.14-31.29,4.47-46.87.02-32.59-19.92-58.78-39.2-84.12l-2.08-2.74c-29.17-36.73-32.06-80.61-7.53-114.5,13.25-18.45,33.99-30.82,65.26-38.95,43.75-11.49,89.76-9.37,140.64,6.48.74.25,1.14,1.01.92,1.75-.23.73-1.01,1.15-1.75.92-50.37-15.69-95.87-17.8-139.11-6.45-30.61,7.95-50.85,19.99-63.7,37.88-23.77,32.84-20.91,75.43,7.47,111.16l2.1,2.76c19.56,25.7,39.78,52.28,39.76,85.75.68,15.81-1.95,31.86-4.5,47.38-1.56,9.51-3.17,19.34-3.94,28.78-5.98,56.14,21.24,106.24,48.66,147.86.42.64.25,1.51-.4,1.93-.41.27-.92.3-1.33.11Z"/>
          </g>
        </g>
      </g>
      <g>
        <path class="cls-19" d="M410.11,317.24h-106.31c-.07-1.7-.28-3.35-.63-4.96l79.89-21.41c.66-.18,1.05-.86.87-1.52-.18-.66-.84-1.05-1.52-.87l-79.88,21.4c-.51-1.61-1.16-3.14-1.93-4.62l71.64-41.36c.59-.34.79-1.1.45-1.69-.34-.59-1.1-.8-1.69-.45l-71.65,41.36c-.9-1.41-1.92-2.73-3.05-3.96l58.51-58.51s0,0,0,0l16.67-16.67c.48-.48.48-1.27,0-1.75s-1.27-.48-1.75,0l-75.18,75.18c-1.23-1.13-2.55-2.15-3.96-3.05l41.36-71.65c.34-.59.14-1.35-.45-1.69-.6-.34-1.35-.14-1.69.45l-41.36,71.64c-1.47-.77-3.01-1.43-4.62-1.93l21.4-79.88c.18-.66-.22-1.34-.87-1.52-.67-.18-1.34.22-1.52.87l-21.41,79.89c-1.61-.36-3.27-.56-4.96-.63v-106.31c0-.68-.55-1.24-1.24-1.24s-1.24.55-1.24,1.24v106.31c-1.7.07-3.35.28-4.96.63l-21.41-79.89c-.18-.66-.84-1.05-1.52-.87-.66.18-1.05.86-.87,1.52l21.4,79.88c-1.61.51-3.14,1.16-4.61,1.93l-41.36-71.64c-.34-.59-1.1-.8-1.69-.45-.59.34-.79,1.1-.45,1.69l41.36,71.64c-1.41.9-2.73,1.93-3.96,3.05l-58.51-58.51-16.67-16.67c-.48-.48-1.27-.48-1.75,0s-.48,1.27,0,1.75l16.67,16.67,58.51,58.51c-1.13,1.23-2.15,2.55-3.05,3.96l-71.64-41.36c-.59-.34-1.35-.14-1.69.45-.34.59-.14,1.35.45,1.69l71.63,41.36c-.77,1.47-1.43,3.01-1.93,4.62l-79.88-21.4c-.67-.18-1.34.22-1.52.87-.18.66.22,1.34.87,1.52l79.89,21.41c-.36,1.61-.56,3.27-.63,4.96h-106.31c-.68,0-1.24.55-1.24,1.24s.55,1.24,1.24,1.24h106.31c.07,1.7.28,3.36.63,4.96l-79.89,21.41c-.66.18-1.05.86-.87,1.52.15.55.65.92,1.2.92.1,0,.21-.01.32-.04l79.88-21.4c.51,1.61,1.16,3.14,1.93,4.62l-71.63,41.36c-.59.34-.79,1.1-.45,1.69.23.4.64.62,1.07.62.21,0,.42-.05.62-.17l71.64-41.36c.9,1.41,1.92,2.73,3.05,3.96l-58.5,58.5-16.67,16.67c-.48.48-.48,1.27,0,1.75.24.24.56.36.87.36s.63-.12.87-.36l16.67-16.67,58.5-58.5c1.23,1.13,2.55,2.15,3.96,3.05l-41.36,71.64c-.34.59-.14,1.35.45,1.69.19.11.41.17.62.17.43,0,.84-.22,1.07-.62l41.36-71.63c1.47.77,3.01,1.43,4.62,1.93l-21.4,79.88c-.18.66.22,1.34.87,1.52.11.03.22.04.32.04.55,0,1.05-.36,1.2-.92l21.41-79.89c1.61.36,3.27.56,4.96.63v106.31c0,.68.55,1.24,1.24,1.24s1.24-.55,1.24-1.24v-106.31c1.7-.07,3.36-.28,4.96-.63l21.41,79.89c.15.55.65.92,1.2.92.1,0,.21-.01.32-.04.66-.18,1.05-.86.87-1.52l-21.4-79.88c1.61-.51,3.14-1.16,4.61-1.93l41.36,71.63c.23.4.64.62,1.07.62.21,0,.42-.05.62-.17.59-.34.79-1.1.45-1.69l-41.36-71.64c1.41-.9,2.73-1.92,3.96-3.05l58.51,58.51,16.67,16.67c.24.24.56.36.87.36s.63-.12.87-.36c.48-.48.48-1.27,0-1.75l-16.67-16.67-58.51-58.51c1.13-1.23,2.15-2.55,3.05-3.96l71.64,41.36c.19.11.41.17.62.17.43,0,.84-.22,1.07-.62.34-.59.14-1.35-.45-1.69l-71.63-41.36c.77-1.47,1.43-3.01,1.93-4.62l79.88,21.4c.11.03.22.04.32.04.55,0,1.05-.36,1.2-.92.18-.66-.22-1.34-.87-1.52l-79.89-21.41c.36-1.61.56-3.27.63-4.96h106.31c.68,0,1.24-.55,1.24-1.24s-.55-1.24-1.24-1.24ZM275.25,344.62c-14.41,0-26.14-11.72-26.14-26.14s11.72-26.14,26.14-26.14,26.14,11.72,26.14,26.14-11.72,26.14-26.14,26.14Z"/>
        <circle class="cls-19" cx="275.25" cy="318.77" r="17.13"/>
      </g>
    </g>
  </g>
</svg>