<?xml version="1.0" encoding="UTF-8"?>
<svg id="Layer_2" data-name="Layer 2" xmlns="http://www.w3.org/2000/svg" xmlns:xlink="http://www.w3.org/1999/xlink" viewBox="0 0 815.74 679.02">
  <defs>
    <style>
      .cls-1 {
        fill: url(#linear-gradient-15);
      }

      .cls-2 {
        fill: url(#linear-gradient-13);
      }

      .cls-3 {
        fill: url(#linear-gradient-2);
      }

      .cls-4 {
        fill: url(#linear-gradient-10);
      }

      .cls-5 {
        fill: url(#linear-gradient-12);
      }

      .cls-6 {
        fill: url(#linear-gradient-4);
      }

      .cls-7 {
        fill: #f6f4f1;
      }

      .cls-8 {
        fill: url(#linear-gradient-3);
      }

      .cls-9 {
        fill: url(#linear-gradient-5);
      }

      .cls-10 {
        fill: url(#linear-gradient-8);
      }

      .cls-11 {
        fill: url(#linear-gradient-14);
      }

      .cls-12 {
        fill: url(#linear-gradient-20);
      }

      .cls-13 {
        fill: url(#linear-gradient-17);
      }

      .cls-14 {
        fill: url(#linear-gradient-7);
      }

      .cls-15 {
        fill: url(#linear-gradient-9);
      }

      .cls-16 {
        fill: url(#linear-gradient-11);
      }

      .cls-17 {
        fill: url(#linear-gradient-19);
      }

      .cls-18 {
        fill: url(#linear-gradient-6);
      }

      .cls-19 {
        fill: url(#linear-gradient-21);
      }

      .cls-20 {
        fill: #e6b65c;
      }

      .cls-21 {
        fill: url(#linear-gradient-16);
      }

      .cls-22 {
        fill: url(#linear-gradient);
      }

      .cls-23 {
        fill: url(#linear-gradient-18);
      }
    </style>
    <linearGradient id="linear-gradient" x1="496.14" y1="1931.86" x2="920.04" y2="1931.86" gradientTransform="translate(603.41 -1860.79) rotate(23.99)" gradientUnits="userSpaceOnUse">
      <stop offset="0" stop-color="#783e8d"/>
      <stop offset="1" stop-color="#774fd4"/>
    </linearGradient>
    <linearGradient id="linear-gradient-2" x1="497.69" y1="1933.29" x2="913.92" y2="1933.29" xlink:href="#linear-gradient"/>
    <linearGradient id="linear-gradient-3" x1="499.12" y1="1934.65" x2="907.71" y2="1934.65" xlink:href="#linear-gradient"/>
    <linearGradient id="linear-gradient-4" x1="500.77" y1="1935.45" x2="900.33" y2="1935.45" xlink:href="#linear-gradient"/>
    <linearGradient id="linear-gradient-5" x1="500.31" y1="1935.23" x2="892.27" y2="1935.23" xlink:href="#linear-gradient"/>
    <linearGradient id="linear-gradient-6" x1="499.85" y1="1931.78" x2="885.53" y2="1931.78" xlink:href="#linear-gradient"/>
    <linearGradient id="linear-gradient-7" x1="499.06" y1="1927.81" x2="879.24" y2="1927.81" xlink:href="#linear-gradient"/>
    <linearGradient id="linear-gradient-8" x1="502.53" y1="2057.02" x2="870.69" y2="2057.02" gradientTransform="translate(603.41 -1860.79) rotate(23.99)" gradientUnits="userSpaceOnUse">
      <stop offset="0" stop-color="#fb896d"/>
      <stop offset="1" stop-color="#f26188"/>
    </linearGradient>
    <linearGradient id="linear-gradient-9" x1="513.66" y1="2062.14" x2="853.63" y2="2062.14" xlink:href="#linear-gradient-8"/>
    <linearGradient id="linear-gradient-10" x1="524.02" y1="2066.43" x2="834.7" y2="2066.43" xlink:href="#linear-gradient-8"/>
    <linearGradient id="linear-gradient-11" x1="535.32" y1="2070.53" x2="824.28" y2="2070.53" xlink:href="#linear-gradient-8"/>
    <linearGradient id="linear-gradient-12" x1="545.52" y1="2074.07" x2="836.5" y2="2074.07" xlink:href="#linear-gradient-8"/>
    <linearGradient id="linear-gradient-13" x1="555.49" y1="2078.43" x2="849.98" y2="2078.43" xlink:href="#linear-gradient-8"/>
    <linearGradient id="linear-gradient-14" x1="565.38" y1="2082.73" x2="860.8" y2="2082.73" xlink:href="#linear-gradient-8"/>
    <linearGradient id="linear-gradient-15" x1="461.33" y1="1981.05" x2="730.18" y2="1981.05" gradientTransform="translate(603.41 -1860.79) rotate(23.99)" gradientUnits="userSpaceOnUse">
      <stop offset="0" stop-color="#bd4071"/>
      <stop offset="1" stop-color="#954a8f"/>
    </linearGradient>
    <linearGradient id="linear-gradient-16" x1="467.82" y1="1988.29" x2="714.96" y2="1988.29" xlink:href="#linear-gradient-15"/>
    <linearGradient id="linear-gradient-17" x1="467.97" y1="1995.58" x2="702.27" y2="1995.58" xlink:href="#linear-gradient-15"/>
    <linearGradient id="linear-gradient-18" x1="463.74" y1="2003.09" x2="689.1" y2="2003.09" xlink:href="#linear-gradient-15"/>
    <linearGradient id="linear-gradient-19" x1="456.98" y1="2011.36" x2="676.98" y2="2011.36" xlink:href="#linear-gradient-15"/>
    <linearGradient id="linear-gradient-20" x1="449.98" y1="2019.83" x2="663.95" y2="2019.83" xlink:href="#linear-gradient-15"/>
    <linearGradient id="linear-gradient-21" x1="443.68" y1="2027.82" x2="653.92" y2="2027.82" xlink:href="#linear-gradient-15"/>
  </defs>
  <g id="Layer_1-2" data-name="Layer 1">
    <g>
      <g>
        <g>
          <g id="_Radial_Repeat_" data-name="&amp;lt;Radial Repeat&amp;gt;">
            <g>
              <path class="cls-22" d="M569.23,398.23c-.18-.08-.34-.21-.47-.38-.36-.51-.23-1.21.28-1.57l3.04-2.12c24.9-17.4,50.65-35.39,60.56-63.98,10.4-29.92-1.96-68.46-17.85-91.6-4.39-6.4-9.25-12.65-13.96-18.7-8.99-11.56-18.29-23.51-24.79-37.13-6.63-13.47-11.29-28.35-15.81-42.74-4.63-14.75-9.41-30.01-16.32-43.78-17.36-38.93-59.21-61.35-97.36-52.21-30.24,8.38-47.74,23.66-66.27,39.85-25.83,22.56-55.1,48.12-125.49,63.39-.61.13-1.21-.26-1.34-.86-.13-.61.25-1.21.86-1.34,69.83-15.15,98.87-40.51,124.49-62.89,18.73-16.36,36.42-31.81,67.2-40.33,39.23-9.4,82.18,13.57,99.96,53.43,6.97,13.89,11.78,29.24,16.43,44.08,4.49,14.31,9.13,29.11,15.68,42.43,6.4,13.41,15.62,25.27,24.54,36.73,4.72,6.07,9.61,12.35,14.03,18.81,16.21,23.59,28.79,62.96,18.13,93.62-10.15,29.27-36.2,47.48-61.4,65.09l-3.03,2.12c-.34.24-.76.26-1.11.11Z"/>
              <path class="cls-3" d="M571.4,386.81c-.21-.09-.39-.25-.51-.46-.32-.54-.14-1.23.4-1.54,14.2-8.34,60.79-39.29,64.13-87.09,1.37-19.68-4.82-37.04-8.15-46.36-5.35-15-10.92-22.56-18.63-33.02-6.14-8.33-13.78-18.7-23.48-36.08-5.98-10.71-8.36-16.2-10.87-22.01-2.7-6.24-5.49-12.68-13.08-26.3-16.13-28.95-23.84-42.21-37.61-53.29-6.29-5.06-25.44-20.45-53.6-21.69-20.68-.91-37.33,6.5-45.33,10.05-17.76,7.9-29.36,18.25-35.6,23.81-1.17,1.04-2.13,1.9-2.88,2.51-30.44,24.92-67.27,29.81-106.27,34.99-5.65.75-11.32,1.51-17.01,2.33-.62.09-1.19-.34-1.28-.96-.09-.62.34-1.19.96-1.28,5.69-.82,11.37-1.58,17.03-2.33,38.67-5.14,75.19-9.99,105.13-34.5.73-.6,1.67-1.43,2.8-2.45,6.33-5.64,18.1-16.15,36.19-24.19,8.16-3.63,25.13-11.18,46.35-10.24,28.91,1.26,48.48,17.01,54.91,22.19,14.7,11.82,23.03,26.78,38.17,53.94,7.64,13.72,10.46,20.22,13.18,26.5,2.49,5.76,4.85,11.2,10.77,21.81,9.63,17.26,17.23,27.56,23.33,35.85,7.82,10.62,13.48,18.29,18.94,33.6,3.38,9.48,9.68,27.13,8.28,47.28-3.41,48.91-50.8,80.4-65.24,88.88-.33.19-.71.2-1.03.06Z"/>
              <path class="cls-8" d="M571.91,376.35c-.17-.08-.32-.19-.44-.35-.38-.5-.28-1.21.22-1.58,34.02-25.75,71.72-61.88,61.16-113.09-4.49-29.09-17.91-49.06-32.1-70.2-3.36-5-6.83-10.18-10.26-15.56-4.03-6.33-7.96-13.01-11.76-19.46-8.97-15.23-18.25-30.99-29.92-44.19-23.03-27.05-58.42-39.33-94.68-32.86-17.67,3.01-34.54,9.98-50.86,16.73-14.18,5.87-28.85,11.93-44.07,15.42-15,3.7-32.14,4.63-48.72,5.53-13.71.74-27.88,1.51-40.57,3.86-.61.12-1.2-.29-1.32-.9-.11-.61.29-1.2.9-1.32,12.83-2.38,27.08-3.15,40.86-3.9,16.48-.89,33.51-1.82,48.32-5.47,15.05-3.45,29.63-9.47,43.73-15.31,16.43-6.79,33.42-13.82,51.33-16.86,37.05-6.61,73.23,5.95,96.78,33.6,11.8,13.35,21.14,29.19,30.16,44.52,3.79,6.44,7.71,13.1,11.72,19.39,3.41,5.37,6.88,10.53,10.23,15.52,14.34,21.36,27.89,41.53,32.45,71.07,10.81,52.39-27.46,89.14-62.02,115.28-.34.26-.78.29-1.14.13Z"/>
              <path class="cls-6" d="M571.61,365.02c-.18-.08-.34-.21-.46-.38-.36-.51-.24-1.21.27-1.57,17.61-12.48,41.1-33.41,52.99-62.33,1.43-3.48,4.78-11.64,6.64-22.79,3.62-21.75-.92-38.73-3.1-46.89-4.34-16.23-10.5-26.46-22.77-46.85-9-14.95-16.1-26.75-28.33-40.49-10.6-11.91-25.14-28.33-48.82-38.61-12.87-5.64-26.99-8.95-41.98-9.85-21.41-1.7-42.93,1.45-63.74,4.5-9.51,1.39-19.33,2.83-28.98,3.78-15.65,1.38-32.59,1.32-48.97,1.27-22.61-.07-45.99-.14-67.18,3.44-.61.09-1.2-.31-1.3-.93-.1-.61.31-1.2.93-1.3,21.38-3.61,44.86-3.54,67.56-3.47,16.33.05,33.22.11,48.76-1.26,9.58-.94,19.38-2.38,28.86-3.77,20.94-3.07,42.58-6.24,64.23-4.52,15.23.91,29.61,4.28,42.73,10.03.19.08.39.17.58.26,23.81,10.6,38.36,26.95,49.01,38.93,12.36,13.89,19.52,25.78,28.57,40.82,12.38,20.58,18.6,30.9,23.02,47.43,2.22,8.31,6.84,25.61,3.15,47.84-1.9,11.41-5.32,19.73-6.78,23.28-12.1,29.41-35.92,50.66-53.78,63.31-.34.24-.76.27-1.11.11Z"/>
              <path class="cls-9" d="M570.17,354.91c-.18-.08-.35-.21-.47-.39-.36-.51-.23-1.22.28-1.57,14.43-10.04,34.38-27.96,47.44-56.32,4.77-10.35,17.43-37.83,11.72-72.78-4.55-27.88-18.59-46.94-26.98-58.34-9.32-12.65-18.22-20.74-24.04-25.3-2.82-2.21-13.16-9.87-26.87-15.8-22.9-9.88-47.44-11.55-78.52-13.67-10.5-.72-21.35-1.46-33.1-2.58-12.03-1.16-24.33-3.07-36.22-4.93-15.37-2.4-31.27-4.88-47.26-5.85-4.57-.32-9.35-.71-14.25-1.11-19.43-1.58-41.45-3.38-59.43-1.23-.61.07-1.18-.37-1.26-.99-.07-.62.37-1.18.99-1.26,18.2-2.17,40.34-.37,59.88,1.23,4.89.4,9.65.79,14.21,1.1,16.08.98,32.03,3.46,47.46,5.87,11.86,1.85,24.12,3.77,36.09,4.91,11.71,1.13,22.55,1.86,33.04,2.58,31.29,2.14,56.01,3.82,79.26,13.85,14.1,6.11,24.49,13.85,27.36,16.1,5.94,4.65,15,12.88,24.47,25.74,8.51,11.56,22.75,30.9,27.39,59.31,5.82,35.62-7.05,63.57-11.89,74.09-13.28,28.83-33.54,47.03-48.21,57.23-.34.23-.76.26-1.1.1Z"/>
              <path class="cls-18" d="M568.72,345.03c-.17-.08-.32-.19-.44-.35-.37-.5-.27-1.21.23-1.58,38.82-29.12,72.34-91.78,58.8-142.24-8.69-36.5-37.7-64.64-72.22-70.07-13.25-2.32-27-2.64-40.3-2.96-16.54-.39-33.64-.8-50.01-5.01-16.36-3.63-32.11-10.36-47.35-16.86-11.6-4.95-23.59-10.07-35.62-13.69-31.19-10.08-63.53-14.02-93.54-11.41-.62.05-1.17-.4-1.22-1.03-.05-.62.41-1.17,1.03-1.22,30.31-2.63,62.95,1.34,94.41,11.5,12.12,3.65,24.17,8.79,35.83,13.77,15.14,6.46,30.8,13.14,46.99,16.74,16.16,4.16,33.13,4.56,49.54,4.95,13.38.32,27.22.64,40.62,2.99,35.38,5.56,65.15,34.39,74.04,71.74,13.77,51.34-20.23,115.04-59.64,144.6-.34.26-.78.29-1.14.13Z"/>
              <path class="cls-14" d="M566.27,335.35c-.14-.06-.26-.15-.37-.27-.42-.46-.39-1.17.07-1.6,31.42-28.99,51.34-60.07,60.9-95.03,6.82-24.71,6.57-43.8-.78-60.07-13.42-29.99-44.47-45.25-81.05-39.81l-2.79.35c-25.96,3.31-52.79,6.74-76.29-6.84-11.38-5.93-21.57-14.28-31.44-22.36-6.04-4.95-12.29-10.06-18.6-14.43-36.98-26.95-83.18-28.15-123.5-25.76-.62.04-1.16-.44-1.19-1.06-.04-.62.44-1.16,1.06-1.19,40.72-2.41,87.41-1.17,124.93,26.18,6.37,4.4,12.65,9.54,18.73,14.52,9.77,8.01,19.88,16.29,31.09,22.13,22.88,13.23,49.33,9.85,74.92,6.58l2.77-.35c37.6-5.59,69.57,10.16,83.42,41.12,7.58,16.78,7.86,36.35.89,61.59-9.67,35.37-29.8,66.8-61.54,96.09-.34.31-.83.38-1.22.2Z"/>
            </g>
          </g>
          <g id="_Radial_Repeat_-2" data-name="&amp;lt;Radial Repeat&amp;gt;">
            <g>
              <path class="cls-10" d="M238.47,429.16c-11.18-4.98-21.33-11.78-28.98-20.64-20.28-23.43-23.02-55.09-25.67-85.71l-.32-3.69c-.05-.62.4-1.17,1.03-1.22.62-.05,1.17.4,1.22,1.03l.32,3.69c2.62,30.26,5.33,61.56,25.13,84.43,20.71,23.97,60.27,32.53,88.26,30.34,7.74-.6,15.59-1.69,23.18-2.73,14.5-2.01,29.5-4.08,44.55-2.9,14.97.99,30.2,4.4,44.92,7.69,15.09,3.37,30.7,6.86,46.08,7.76,42.39,4.42,82.74-20.6,93.89-58.21,7.87-30.38,3.38-53.18-1.37-77.32-6.62-33.64-14.12-71.78,7.85-140.37.19-.6.83-.92,1.42-.73.59.18.92.83.73,1.42-21.8,68.05-14.35,105.87-7.78,139.25,4.8,24.4,9.34,47.45,1.33,78.36-11.47,38.67-52.85,64.39-96.26,59.86-15.51-.91-31.2-4.42-46.38-7.81-14.64-3.27-29.77-6.65-44.59-7.63-14.81-1.16-29.69.89-44.08,2.88-7.62,1.05-15.5,2.14-23.31,2.75-18.24,1.43-41.33-1.65-61.16-10.47Z"/>
              <path class="cls-15" d="M250.18,435c-4.5-2-9.07-4.45-13.53-7.45-40.66-27.42-44.23-84.19-44.35-100.94,0-.62.5-1.13,1.12-1.14.62,0,1.13.5,1.14,1.12.12,16.47,3.61,72.28,43.36,99.08,16.37,11.04,34.49,14.35,44.23,16.12,15.66,2.86,25,1.82,37.91.38,10.29-1.15,23.09-2.58,42.99-2.29,12.27.18,18.21.86,24.5,1.59,6.75.78,13.73,1.59,29.31,1.82,33.13.51,48.47.46,64.95-5.93,7.53-2.92,30.43-11.8,45.58-35.57,11.13-17.46,13.04-35.58,13.96-44.28,2.04-19.34-1.12-34.56-2.82-42.74-.32-1.53-.58-2.79-.74-3.74-6.36-38.82,7.82-73.16,22.83-109.53,2.18-5.27,4.36-10.56,6.49-15.89.23-.58.89-.86,1.47-.63.68.27.86.89.63,1.47-2.13,5.34-4.32,10.64-6.5,15.92-14.89,36.06-28.95,70.11-22.69,108.3.15.93.41,2.15.72,3.65,1.72,8.3,4.94,23.75,2.85,43.44-.94,8.88-2.89,27.35-14.3,45.26-15.55,24.39-38.97,33.48-46.67,36.46-17.59,6.82-34.71,6.56-65.8,6.09-15.7-.24-22.73-1.05-29.54-1.84-6.23-.72-12.12-1.4-24.28-1.57-19.76-.28-32.48,1.13-42.7,2.28-13.11,1.46-22.58,2.52-38.57-.4-7.27-1.33-19.13-3.49-31.55-9.02Z"/>
              <path class="cls-4" d="M261.54,440.51c-43.81-19.5-55.36-67.58-60.42-108.1-.08-.62.36-1.18.98-1.26.61-.07,1.18.36,1.26.98,5.29,42.34,17.69,93.08,67.36,109.5,27.44,10.66,51.44,9.03,76.85,7.3,6.01-.41,12.23-.83,18.61-1.1,7.5-.33,15.24-.39,22.74-.46,17.68-.15,35.96-.31,53.23-3.82,34.94-6.42,63.27-30.93,75.8-65.57,6.23-16.81,8.63-34.91,10.94-52.41,2.01-15.22,4.09-30.95,8.68-45.87,4.29-14.84,12.06-30.15,19.57-44.95,6.21-12.25,12.63-24.91,16.94-37.07.21-.59.85-.9,1.44-.69.59.17.9.85.69,1.44-4.36,12.3-10.81,25.03-17.05,37.34-7.46,14.71-15.18,29.93-19.42,44.58-4.54,14.76-6.61,30.4-8.61,45.52-2.33,17.62-4.74,35.85-11.06,52.89-12.8,35.39-41.77,60.45-77.49,67.01-17.46,3.55-35.85,3.71-53.64,3.86-7.47.06-15.2.13-22.66.45-6.36.27-12.56.7-18.56,1.1-25.66,1.74-49.91,3.39-77.76-7.43-2.93-.97-5.73-2.06-8.41-3.25Z"/>
              <path class="cls-16" d="M279.35,448.06c-7.21-3.21-15.38-7.81-23.56-14.54-8.95-7.36-14.43-14.48-16.77-17.51-19.42-25.18-25.91-56.44-27.94-78.23-.06-.62.4-1.17,1.02-1.23.63-.06,1.17.4,1.23,1.02,2,21.49,8.39,52.3,27.48,77.06,2.3,2.98,7.67,9.95,16.42,17.15,17.03,14.01,34,18.57,42.16,20.76,16.22,4.36,28.16,4.14,51.95,3.7,17.44-.32,31.22-.57,49.23-4.28,15.62-3.23,37.01-7.64,57.85-22.97,11.32-8.32,21.25-18.9,29.52-31.43,12.18-17.69,20.21-37.9,27.97-57.44,3.55-8.93,7.22-18.17,11.22-27,6.63-14.24,15.15-28.88,23.38-43.04,11.37-19.55,23.12-39.76,30.62-59.91.22-.58.87-.88,1.45-.66.56.2.88.87.66,1.45-7.56,20.32-19.36,40.62-30.78,60.25-8.21,14.11-16.7,28.71-23.28,42.85-3.98,8.77-7.64,17.98-11.17,26.89-7.81,19.66-15.88,39.99-28.2,57.87-8.4,12.74-18.52,23.51-30.05,31.99-21.24,15.62-42.91,20.1-58.73,23.36-18.22,3.76-32.09,4.01-49.64,4.33-24.01.44-36.06.66-52.59-3.78-4.4-1.18-11.32-3.04-19.44-6.66Z"/>
              <path class="cls-5" d="M298.24,456.83c-29.91-13.31-45.96-36.01-52.24-44.89-18.33-25.92-23.96-52.57-25.46-70.36-.05-.62.41-1.17,1.03-1.22.62-.05,1.16.41,1.22,1.03,1.47,17.51,7.01,43.74,25.05,69.25,6.58,9.3,24.01,33.98,57.17,46.53,26.42,9.99,49.95,7.37,64.01,5.8,15.62-1.74,27.07-5.41,33.93-8.17,3.32-1.34,15.1-6.42,27.12-15.36,20-14.89,33.72-35.31,51.1-61.17,5.87-8.73,11.94-17.76,18.78-27.37,7.02-9.84,14.83-19.53,22.38-28.91,9.76-12.11,19.86-24.64,28.69-37.99,2.56-3.8,5.29-7.74,8.08-11.78,11.09-16.04,23.65-34.21,30.78-50.85.25-.57.91-.84,1.48-.59.46.25.84.91.59,1.48-7.22,16.85-19.86,35.13-31,51.25-2.79,4.03-5.51,7.96-8.06,11.75-8.88,13.44-19.01,26-28.81,38.16-7.53,9.35-15.33,19.01-22.3,28.8-6.83,9.58-12.89,18.6-18.75,27.32-17.5,26.03-31.32,46.59-51.63,61.72-12.23,9.11-24.23,14.28-27.62,15.65-6.99,2.82-18.65,6.55-34.52,8.32-14.26,1.59-38.13,4.25-65.06-5.93-2.05-.77-4.04-1.6-5.98-2.46Z"/>
              <path class="cls-2" d="M311.85,464.49c-44.5-19.8-76.65-74.63-82.02-119.19-.08-.62.37-1.18.98-1.26.62-.08,1.18.36,1.26.98,5.81,48.18,43.3,108.56,93.78,122.05,35.96,10.73,74.84-.33,96.79-27.51,8.63-10.32,15.79-22.06,22.71-33.42,8.61-14.12,17.51-28.73,29.35-40.81,11.33-12.35,25.03-22.63,38.28-32.58,10.09-7.57,20.51-15.4,29.66-24,24.32-21.98,43.9-48.01,56.65-75.3.26-.57.89-.76,1.5-.55.57.26.81.94.55,1.5-12.87,27.56-32.64,53.85-57.16,76.01-9.22,8.67-19.7,16.54-29.84,24.15-13.17,9.89-26.78,20.1-37.99,32.33-11.68,11.92-20.51,26.41-29.05,40.43-6.97,11.43-14.17,23.25-22.9,33.68-22.5,27.87-62.35,39.23-99.15,28.25-4.57-1.22-9.04-2.83-13.39-4.76Z"/>
              <path class="cls-11" d="M325.18,473.99c-11-4.89-21.89-12.95-33.27-24.51-25.8-26.06-42.95-59.21-52.45-101.35-.14-.61.25-1.21.85-1.35.6-.14,1.21.24,1.35.85,9.39,41.71,26.35,74.5,51.85,100.25,17.98,18.26,34.64,27.59,52.41,29.36,32.69,3.38,61.42-15.89,75-50.29l1.09-2.6c10.11-24.14,20.57-49.1,44.07-62.65,10.82-6.89,23.15-11.54,35.08-16.04,7.31-2.76,14.86-5.61,21.8-8.9,41.83-18.54,65.96-57.96,84.06-94.07.28-.56.95-.8,1.51-.5.56.28.78.96.5,1.51-18.28,36.47-42.69,76.29-85.14,95.11-6.99,3.32-14.59,6.19-21.94,8.96-11.82,4.46-24.04,9.07-34.71,15.86-22.88,13.19-33.19,37.8-43.16,61.59l-1.08,2.58c-13.96,35.36-43.59,55.17-77.32,51.69-6.97-.69-13.76-2.51-20.52-5.51Z"/>
            </g>
          </g>
          <g id="_Radial_Repeat_-3" data-name="&amp;lt;Radial Repeat&amp;gt;">
            <g>
              <path class="cls-1" d="M384.55,424.1c-.14-.06-.27-.15-.38-.27-48.03-52.89-84.51-65.36-116.7-76.37-23.53-8.04-45.76-15.63-68.53-38.03-27.75-29.27-29.34-77.96-3.71-113.28,8.55-12.98,19.43-24.82,29.96-36.27,10.15-11.04,20.64-22.45,28.9-34.79,8.41-12.25,14.07-26.16,19.54-39.61,2.9-7.13,5.9-14.5,9.28-21.56,12.33-25.83,40.13-56.41,72.01-62.51,30.42-5.85,59.21,7.62,87.05,20.62l3.37,1.57c.57.26.81.94.55,1.5s-.84.8-1.5.55l-3.37-1.58c-27.51-12.85-55.96-26.16-85.67-20.45-31.12,5.95-58.31,35.92-70.4,61.26-3.35,7-6.33,14.34-9.22,21.44-5.52,13.56-11.22,27.59-19.76,40.03-8.35,12.47-18.9,23.95-29.11,35.05-10.47,11.39-21.29,23.16-29.76,36.03-25.03,34.5-23.53,81.95,3.46,110.42,22.37,22,44.37,29.52,67.65,37.47,32.44,11.1,69.23,23.66,117.64,76.98.42.46.39,1.18-.08,1.6-.34.31-.82.37-1.22.2Z"/>
              <path class="cls-21" d="M367.8,424.3c-.16-.07-.31-.18-.43-.33-3.55-4.51-7.05-9.05-10.52-13.57-23.79-30.92-46.24-60.13-82.46-73.81-.88-.33-2.07-.72-3.52-1.2-8.05-2.66-23.03-7.6-39.04-19.25-7.22-5.25-22.25-16.18-32.05-35.01-13.35-25.67-9.5-50.49-8.24-58.65,2.88-18.64,11.67-33.34,27.63-60.03,8.06-13.48,12.28-19.16,16.36-24.66,3.74-5.04,7.27-9.8,13.5-20.24,10.13-16.97,15.26-28.7,19.38-38.12,5.29-12.09,9.11-20.82,19.63-33.2,6.52-7.67,18.65-21.95,36.81-30.81,44.07-21.5,95.02,3.79,109.59,12.06.54.31.73,1,.42,1.54-.31.54-.99.71-1.54.42-14.31-8.13-64.4-33.01-107.49-11.99-17.73,8.65-29.66,22.69-36.07,30.24-10.31,12.13-14.08,20.74-19.28,32.65-4.15,9.48-9.31,21.28-19.51,38.38-6.29,10.54-9.85,15.34-13.63,20.42-4.05,5.46-8.24,11.1-16.24,24.47-17,28.44-24.63,41.75-27.34,59.22-1.24,7.98-5,32.25,8.01,57.26,9.55,18.36,24.29,29.08,31.37,34.23,15.72,11.43,30.49,16.31,38.42,18.93,1.48.49,2.71.89,3.61,1.24,36.78,13.89,59.46,43.36,83.45,74.55,3.47,4.51,6.96,9.05,10.51,13.55.39.49.3,1.2-.19,1.59-.34.27-.79.31-1.16.14Z"/>
              <path class="cls-13" d="M353.9,424.33c-.15-.07-.29-.17-.4-.3-8.47-9.92-16.27-21.88-23.8-33.44-9.01-13.82-18.33-28.11-28.9-39.11-10.51-11.31-23.02-20.92-35.12-30.22-14.1-10.83-28.67-22.03-40.27-36.02-24.25-28.79-31.46-66.4-19.28-100.61,5.65-16.89,14.71-32.9,23.47-48.38,3.68-6.51,7.49-13.23,10.94-19.85,2.94-5.64,5.68-11.22,8.32-16.62,11.32-23.1,22.02-44.92,45.32-63.63,39.97-35.56,90.93-20.79,130.85-3.94.5.17.85.91.6,1.48-.24.57-.9.84-1.48.6-39.31-16.59-89.44-31.18-128.51,3.58-22.95,18.44-33.53,40.04-44.74,62.91-2.65,5.41-5.4,11-8.35,16.67-3.47,6.66-7.28,13.4-10.97,19.92-8.71,15.39-17.71,31.3-23.3,48-11.91,33.47-4.85,70.26,18.88,98.43,11.44,13.8,25.91,24.92,39.91,35.67,12.17,9.35,24.76,19.02,35.39,30.46,10.71,11.14,20.08,25.52,29.15,39.43,7.5,11.5,15.25,23.39,23.63,33.2.4.47.35,1.19-.13,1.59-.34.29-.81.34-1.19.17Z"/>
              <path class="cls-23" d="M339.56,424.18c-.16-.07-.3-.17-.41-.31-13.82-16.71-25.5-37.08-36.79-56.79-8.12-14.16-16.51-28.81-25.46-41.59-5.61-7.83-11.75-15.6-17.7-23.11-13.12-16.6-26.7-33.76-36.03-53.36-6.83-13.65-11.1-27.8-12.68-42.02-2.91-26.21,4.05-47.21,9.13-62.54,5.85-17.65,12.57-29.79,21.07-45.16,11.62-21.01,17.46-31.56,29.57-43.65,6.09-6.08,18.76-18.73,39.86-26.65,10.86-4.07,19.75-5.26,23.55-5.77,31.52-4.22,61.83,5.8,81.71,14.92.57.26.82.93.56,1.5-.26.56-.92.81-1.49.56h-.01c-19.64-8.98-49.49-18.89-80.47-14.74-3.72.5-12.44,1.66-23.06,5.65-20.65,7.75-33.08,20.16-39.06,26.13-11.89,11.87-17.67,22.32-29.19,43.14-8.45,15.27-15.12,27.33-20.9,44.78-5.02,15.13-11.89,35.86-9.04,61.58,1.55,13.96,5.74,27.85,12.46,41.28,9.23,19.39,22.72,36.45,35.77,52.95,5.96,7.53,12.12,15.33,17.77,23.21,9.02,12.87,17.44,27.56,25.58,41.77,11.25,19.62,22.87,39.91,36.57,56.47.4.48.33,1.19-.15,1.59-.34.28-.8.33-1.18.16Z"/>
              <path class="cls-17" d="M325.42,426.13c-.17-.08-.33-.2-.45-.36-10.98-14.68-20.48-34.75-28.87-52.45-2.1-4.44-4.15-8.76-6.16-12.88-7.19-14.41-13.01-29.46-18.64-44.02-4.33-11.2-8.8-22.78-13.79-33.72-4.88-10.71-9.67-20.47-14.29-29.91-13.8-28.16-24.69-50.41-27.63-75.56-1.77-15.13-.25-28.12.26-31.74,1.05-7.46,3.65-19.42,10.05-34.06,5.75-13.15,15.38-35.15,37.67-53.38,27.94-22.85,58.58-25.68,70.11-26.75,31.62-2.91,57.5,5.53,73.67,13.13.56.27.81.94.54,1.5-.26.56-.92.8-1.48.55h-.02c-15.88-7.49-41.39-15.8-72.5-12.94-11.34,1.05-41.47,3.83-68.88,26.24-21.86,17.88-31.36,39.58-37.03,52.54-4.92,11.24-8.43,23.13-9.89,33.47-.5,3.55-1.99,16.31-.26,31.17,2.9,24.77,13.72,46.86,27.42,74.83,4.63,9.45,9.42,19.22,14.31,29.96,5.02,11,9.51,22.62,13.85,33.85,5.61,14.51,11.4,29.51,18.55,43.84,2.02,4.12,4.07,8.46,6.17,12.91,8.34,17.61,17.79,37.57,28.64,52.07.37.5.27,1.21-.23,1.58-.34.25-.78.29-1.14.13Z"/>
              <path class="cls-12" d="M310.24,428.19c-.18-.08-.34-.21-.47-.38-17.43-24.93-30.31-55.19-37.24-87.51-2.9-12.32-4.47-25.33-5.99-37.91-1.98-16.34-4.02-33.25-9-49.07-4.48-16.08-12.61-30.97-20.48-45.38-6.42-11.75-13.05-23.89-17.72-36.67-12.88-33.42-2.79-73.61,25.11-99.99,37.57-37.59,109.74-40,155.04-20.65h.02c.56.26.82.91.58,1.48-.25.57-.91.84-1.48.6-44.63-19.06-115.65-16.76-152.58,20.19-27.27,25.78-37.13,64.99-24.57,97.58,4.62,12.63,11.21,24.7,17.59,36.38,7.93,14.52,16.13,29.53,20.66,45.82,5.03,15.98,7.09,32.99,9.08,49.44,1.51,12.52,3.08,25.47,5.96,37.69,6.87,32.05,19.63,62.03,36.89,86.71.36.51.23,1.22-.28,1.57-.34.24-.76.26-1.11.11Z"/>
              <path class="cls-19" d="M298.35,430.24c-.19-.09-.36-.22-.48-.41-22.44-34.06-44.72-75.11-39.8-121.29.62-7.71,1.94-15.73,3.21-23.48,2.05-12.47,4.16-25.36,3.62-37.99.02-26.41-16.14-47.65-31.77-68.18l-1.69-2.22c-23.64-29.77-25.98-65.33-6.1-92.8,10.74-14.95,27.55-24.98,52.89-31.57,35.46-9.32,72.75-7.6,113.99,5.25.6.2.93.82.74,1.42-.19.59-.82.93-1.42.74-40.82-12.72-77.7-14.43-112.75-5.22-24.81,6.44-41.21,16.2-51.63,30.7-19.27,26.62-16.95,61.14,6.05,90.1l1.7,2.24c15.85,20.83,32.24,42.37,32.23,69.5.55,12.81-1.58,25.82-3.65,38.4-1.26,7.71-2.57,15.68-3.19,23.33-4.85,45.5,17.21,86.11,39.44,119.84.34.52.2,1.22-.32,1.56-.33.22-.74.24-1.08.09Z"/>
            </g>
          </g>
        </g>
        <g>
          <path class="cls-20" d="M509.41,257.13h-86.17c-.06-1.37-.22-2.72-.51-4.02l64.75-17.35c.53-.14.85-.69.71-1.23-.14-.53-.68-.85-1.23-.71l-64.74,17.35c-.41-1.3-.94-2.55-1.57-3.74l58.06-33.52c.48-.28.64-.89.37-1.37-.28-.48-.89-.65-1.37-.37l-58.07,33.53c-.73-1.14-1.56-2.21-2.47-3.21l47.42-47.42s0,0,0,0l13.51-13.51c.39-.39.39-1.03,0-1.42-.39-.39-1.03-.39-1.42,0l-60.93,60.94c-1-.91-2.07-1.74-3.21-2.47l33.53-58.07c.28-.48.11-1.09-.37-1.37-.48-.28-1.09-.11-1.37.37l-33.52,58.06c-1.19-.62-2.44-1.16-3.74-1.57l17.35-64.74c.14-.54-.17-1.08-.71-1.23-.54-.14-1.08.18-1.23.71l-17.35,64.75c-1.3-.29-2.65-.45-4.02-.51v-86.17c0-.55-.45-1-1-1s-1,.45-1,1v86.17c-1.37.06-2.72.22-4.02.51l-17.35-64.75c-.14-.53-.68-.85-1.23-.71-.53.14-.85.69-.71,1.23l17.35,64.74c-1.3.41-2.55.94-3.74,1.57l-33.52-58.06c-.28-.48-.89-.65-1.37-.37-.48.28-.64.89-.37,1.37l33.53,58.07c-1.14.73-2.21,1.56-3.21,2.47l-47.42-47.42-13.51-13.51c-.39-.39-1.03-.39-1.42,0-.39.39-.39,1.03,0,1.42l13.51,13.51,47.42,47.42c-.91,1-1.74,2.06-2.47,3.21l-58.07-33.53c-.48-.28-1.09-.11-1.37.37-.28.48-.11,1.09.37,1.37l58.06,33.52c-.62,1.19-1.16,2.44-1.57,3.74l-64.74-17.35c-.54-.14-1.08.18-1.23.71-.14.54.17,1.08.71,1.23l64.75,17.35c-.29,1.3-.45,2.65-.51,4.02h-86.17c-.55,0-1,.45-1,1s.45,1,1,1h86.17c.06,1.37.22,2.72.51,4.02l-64.75,17.35c-.53.14-.85.69-.71,1.23.12.45.52.74.97.74.08,0,.17-.01.26-.03l64.74-17.35c.41,1.3.94,2.55,1.57,3.74l-58.06,33.52c-.48.28-.64.89-.37,1.37.19.32.52.5.87.5.17,0,.34-.04.5-.13l58.07-33.53c.73,1.14,1.56,2.21,2.47,3.21l-47.42,47.42-13.51,13.51c-.39.39-.39,1.03,0,1.42.2.2.45.29.71.29s.51-.1.71-.29l13.51-13.51,47.42-47.42c1,.91,2.06,1.74,3.21,2.47l-33.52,58.07c-.28.48-.11,1.09.37,1.37.16.09.33.13.5.13.35,0,.68-.18.87-.5l33.52-58.06c1.19.62,2.44,1.16,3.74,1.57l-17.35,64.74c-.14.54.17,1.08.71,1.23.09.02.17.03.26.03.44,0,.85-.3.97-.74l17.35-64.75c1.3.29,2.65.45,4.02.51v86.17c0,.55.45,1,1,1s1-.45,1-1v-86.17c1.37-.06,2.72-.22,4.02-.51l17.35,64.75c.12.45.52.74.97.74.08,0,.17-.01.26-.03.53-.14.85-.69.71-1.23l-17.35-64.74c1.3-.41,2.55-.94,3.74-1.57l33.52,58.06c.19.32.52.5.87.5.17,0,.34-.04.5-.13.48-.28.64-.89.37-1.37l-33.53-58.07c1.14-.73,2.21-1.56,3.21-2.47l47.42,47.42,13.51,13.51c.2.2.45.29.71.29s.51-.1.71-.29c.39-.39.39-1.03,0-1.42l-13.51-13.51-47.42-47.42c.91-1,1.74-2.07,2.47-3.21l58.07,33.53c.16.09.33.13.5.13.35,0,.68-.18.87-.5.28-.48.11-1.09-.37-1.37l-58.06-33.52c.62-1.19,1.16-2.44,1.57-3.74l64.74,17.35c.09.02.17.03.26.03.44,0,.85-.3.97-.74.14-.54-.17-1.08-.71-1.23l-64.75-17.35c.29-1.3.45-2.65.51-4.02h86.17c.55,0,1-.45,1-1s-.45-1-1-1ZM400.11,279.31c-11.68,0-21.18-9.5-21.18-21.18s9.5-21.18,21.18-21.18,21.18,9.5,21.18,21.18-9.5,21.18-21.18,21.18Z"/>
          <circle class="cls-20" cx="400.11" cy="258.36" r="13.89"/>
        </g>
      </g>
      <g>
        <path class="cls-7" d="M0,613.15c0-34.84,27.4-64.24,68.23-64.24,11.25,0,29.94,2.54,39.38,8.89l.73,23.95-2.18.55c-7.44-18.69-26.5-29.94-44.64-29.94-23.77,0-42.1,15.97-42.47,48.82-.36,34.3,20.51,73.5,55.35,73.5,11.43,0,21.78-4.72,26.31-13.79v-16.51c0-14.15-1.63-19.24-9.44-21.41v-2.54h28.13v33.39c-13.61,17.78-35.93,25.22-50.99,25.22-41.74,0-68.42-26.13-68.42-65.87Z"/>
        <path class="cls-7" d="M132.48,674.67c5.99-2,7.26-7.44,7.26-20.51v-96.18c0-10.71-2.72-12.52-7.26-14.52v-2.54l23.96-10.53,1.81,1.45v122.31c0,13.07,1.27,18.51,7.26,20.51v2.54h-33.03v-2.54Z"/>
        <path class="cls-7" d="M177.3,634.2c0-29.4,23.59-49,48.45-49,22.5,0,48.27,13.25,48.27,45.19s-26.86,48.64-48.27,48.64c-23.59,0-48.45-13.97-48.45-44.82ZM255.7,644.18c0-23.05-15.79-57.71-39.2-55.35-15.79,1.63-21.05,16.15-21.05,31.76,0,21.41,12.7,54.44,36.66,54.44,17.78,0,23.59-15.42,23.59-30.85Z"/>
        <path class="cls-7" d="M274.76,589.01v-2.54h31.03v2.54c-5.99,2-4.54,7.08-1.09,19.6l13.79,48.64,24.32-70.77h11.07l23.96,70.05,14.34-47.91c3.63-12.52,1.63-18.15-4.54-19.6v-2.54h19.42v2.54c-5.26,1.81-8.17,7.08-11.8,19.6l-20.69,68.6h-9.26l-25.23-74.22-25.77,74.22h-9.26l-19.96-68.6c-3.63-12.52-6.35-17.78-10.34-19.6Z"/>
        <path class="cls-7" d="M412.5,666.14l-.73-27.22,2.36-.36c7.62,20.69,23.77,36.66,47.91,36.66,12.52,0,24.14-7.99,24.14-22.87,0-17.78-23.41-26.13-37.93-31.94-18.69-7.8-34.3-13.97-34.3-35.03,0-22.5,18.15-36.48,46.64-36.48,13.43,0,25.41,2.9,34.84,7.62l.73,23.59-2,.73c-7.44-18.69-22.87-28.85-40.47-28.85-14.52,0-25.95,8.53-25.95,22.87,0,16.15,18.33,22.68,32.85,28.49,18.51,7.08,40.47,15.24,40.47,37.02,0,24.86-22.87,38.65-43.74,38.65-18.69,0-35.57-5.99-44.82-12.88Z"/>
        <path class="cls-7" d="M521.03,651.62v-62.25h-11.61v-2.9l27.22-23.96h2.9v23.96h28.13l-.73,2.9h-27.4v62.43c0,11.25,4.17,16.15,12.16,16.15,3.99,0,10.16-1.63,16.15-9.07l1.81,1.81c-9.62,11.07-18.87,18.33-29.76,18.33-12.34,0-18.87-7.8-18.87-27.4Z"/>
        <path class="cls-7" d="M575.47,674.67c5.99-2,7.26-7.44,7.26-20.51v-41.74c0-10.71-2.72-12.52-7.26-14.52v-2.54l23.96-10.53,1.81,1.45v21.96c2.72-6.35,7.44-11.98,13.25-15.97,6.71-4.72,13.61-7.08,22.32-7.08,6.17,0,11.61,1.63,11.61,5.44s-3.99,11.8-12.34,11.8c-5.08,0-11.98-1.81-23.59-5.45-4.54,3.81-10.71,11.98-11.25,21.05v36.11c0,13.07,1.27,18.51,7.26,20.51v2.54h-33.03v-2.54Z"/>
        <path class="cls-7" d="M657.31,674.67c5.99-2,7.26-7.44,7.26-20.51v-41.74c0-10.71-2.72-12.52-7.26-14.52v-2.54l23.96-10.53,1.81,1.45v15.24c9.98-8.17,23.05-16.33,37.2-16.33,12.7,0,21.05,4.9,24.5,16.51,9.98-8.17,23.23-16.51,37.57-16.51,16.7,0,26.13,8.71,26.13,29.94v39.02c0,13.07,1.27,18.51,7.26,20.51v2.54h-33.03v-2.54c5.99-2,7.26-7.44,7.26-20.51v-35.75c0-16.33-5.26-25.95-18.69-25.95-8.53,0-16.33,4.17-25.95,11.8.73,3.27,1.09,6.9,1.09,10.89v39.02c0,13.07,1.27,18.51,7.26,20.51v2.54h-33.03v-2.54c5.99-2,7.26-7.44,7.26-20.51v-35.75c0-16.33-5.26-25.95-18.69-25.95-8.53,0-16.33,4.17-26.13,12.16v49.54c0,13.07,1.27,18.51,7.26,20.51v2.54h-33.03v-2.54Z"/>
      </g>
    </g>
  </g>
</svg>
