<?xml version="1.0" encoding="UTF-8"?>
<svg id="Layer_2" data-name="Layer 2" xmlns="http://www.w3.org/2000/svg" viewBox="0 0 1049.48 191.22">
  <defs>
    <style>
      .cls-1 {
        fill: #2b2e3a;
      }
    </style>
  </defs>
  <g id="Layer_1-2" data-name="Layer 1">
    <g>
      <path class="cls-1" d="M0,106.47C0,61.64,35.25,23.82,87.79,23.82c14.48,0,38.52,3.27,50.66,11.44l.93,30.82-2.8.7c-9.57-24.05-34.09-38.52-57.43-38.52-30.59,0-54.17,20.55-54.63,62.81-.47,44.13,26.38,94.56,71.21,94.56,14.71,0,28.02-6.07,33.85-17.74v-21.25c0-18.21-2.1-24.75-12.14-27.55v-3.27h36.19v42.96c-17.51,22.88-46.23,32.45-65.61,32.45C34.32,191.22,0,157.6,0,106.47Z"/>
      <path class="cls-1" d="M170.44,185.61c7.71-2.57,9.34-9.57,9.34-26.38V35.49c0-13.78-3.5-16.11-9.34-18.68v-3.27L201.26,0l2.33,1.87v157.36c0,16.81,1.63,23.82,9.34,26.38v3.27h-42.49v-3.27Z"/>
      <path class="cls-1" d="M228.11,133.55c0-37.82,30.35-63.04,62.34-63.04,28.95,0,62.1,17.04,62.1,58.13s-34.55,62.57-62.1,62.57c-30.35,0-62.34-17.98-62.34-57.67ZM328.97,146.39c0-29.65-20.31-74.24-50.43-71.21-20.31,2.1-27.08,20.78-27.08,40.86,0,27.55,16.34,70.04,47.16,70.04,22.88,0,30.35-19.84,30.35-39.69Z"/>
      <path class="cls-1" d="M353.49,75.41v-3.27h39.92v3.27c-7.71,2.57-5.84,9.1-1.4,25.21l17.74,62.57,31.28-91.05h14.24l30.82,90.12,18.44-61.64c4.67-16.11,2.1-23.35-5.84-25.21v-3.27h24.98v3.27c-6.77,2.33-10.51,9.1-15.18,25.21l-26.62,88.25h-11.91l-32.45-95.49-33.15,95.49h-11.91l-25.68-88.25c-4.67-16.11-8.17-22.88-13.31-25.21Z"/>
      <path class="cls-1" d="M530.7,174.64l-.93-35.02,3.04-.47c9.81,26.62,30.58,47.16,61.64,47.16,16.11,0,31.05-10.27,31.05-29.42,0-22.88-30.12-33.62-48.8-41.09-24.05-10.04-44.13-17.98-44.13-45.06,0-28.95,23.35-46.93,60-46.93,17.28,0,32.69,3.73,44.83,9.81l.93,30.35-2.57.93c-9.57-24.05-29.42-37.12-52.07-37.12-18.68,0-33.39,10.97-33.39,29.42,0,20.78,23.58,29.18,42.26,36.66,23.81,9.1,52.06,19.61,52.06,47.63,0,31.99-29.42,49.73-56.27,49.73-24.05,0-45.76-7.7-57.67-16.58Z"/>
      <path class="cls-1" d="M670.32,155.96v-80.08h-14.94v-3.73l35.02-30.82h3.74v30.82h36.19l-.93,3.73h-35.25v80.32c0,14.48,5.37,20.78,15.64,20.78,5.14,0,13.07-2.1,20.78-11.67l2.33,2.33c-12.37,14.24-24.28,23.58-38.29,23.58-15.88,0-24.28-10.04-24.28-35.25Z"/>
      <path class="cls-1" d="M740.36,185.61c7.71-2.57,9.34-9.57,9.34-26.38v-53.7c0-13.78-3.5-16.11-9.34-18.68v-3.27l30.82-13.54,2.33,1.87v28.25c3.5-8.17,9.57-15.41,17.04-20.55,8.64-6.07,17.51-9.11,28.72-9.11,7.94,0,14.94,2.1,14.94,7s-5.14,15.18-15.88,15.18c-6.54,0-15.41-2.33-30.35-7.01-5.84,4.9-13.78,15.41-14.48,27.08v46.46c0,16.81,1.63,23.82,9.34,26.38v3.27h-42.49v-3.27Z"/>
      <path class="cls-1" d="M845.66,185.61c7.71-2.57,9.34-9.57,9.34-26.38v-53.7c0-13.78-3.5-16.11-9.34-18.68v-3.27l30.82-13.54,2.33,1.87v19.61c12.84-10.51,29.65-21.01,47.86-21.01,16.34,0,27.08,6.3,31.52,21.25,12.84-10.51,29.88-21.25,48.33-21.25,21.48,0,33.62,11.21,33.62,38.52v50.2c0,16.81,1.63,23.82,9.34,26.38v3.27h-42.49v-3.27c7.7-2.57,9.34-9.57,9.34-26.38v-45.99c0-21.01-6.77-33.39-24.05-33.39-10.97,0-21.01,5.37-33.39,15.18.93,4.2,1.4,8.87,1.4,14.01v50.2c0,16.81,1.63,23.82,9.34,26.38v3.27h-42.49v-3.27c7.71-2.57,9.34-9.57,9.34-26.38v-45.99c0-21.01-6.77-33.39-24.05-33.39-10.97,0-21.01,5.37-33.62,15.64v63.74c0,16.81,1.63,23.82,9.34,26.38v3.27h-42.49v-3.27Z"/>
    </g>
  </g>
</svg>
